<svg width="123" height="91" viewBox="0 0 123 91" fill="none" xmlns="http://www.w3.org/2000/svg">
<g clip-path="url(#clip0_46_39286)">
<path d="M111.376 90.5781H85.2962V89.7788C85.2962 89.0848 85.5723 88.4192 86.0636 87.9285C86.555 87.4378 87.2214 87.1621 87.9163 87.1621H108.756C109.451 87.1621 110.118 87.4378 110.609 87.9285C111.1 88.4192 111.376 89.0848 111.376 89.7788V90.5781Z" fill="#E6E6E6"/>
<path d="M97.7264 87.3219L98.5195 87.0029C90.221 66.4305 91.0205 40.4767 98.0354 18.2129C98.8687 15.6333 98.9288 12.8667 98.2083 10.2535C97.4878 7.64025 96.0182 5.29436 93.9802 3.50442C89.9085 -0.124516 84.2951 -1.00855 79.3297 1.19706C74.4285 3.37452 73.7529 7.16734 73.7529 10.9417H74.608C74.608 6.91276 75.4701 3.84646 79.6773 1.97737C84.331 -0.0896961 89.5933 0.739404 93.4108 4.1417C95.325 5.82283 96.7054 8.02618 97.3821 10.4806C98.0589 12.9351 98.0024 15.5336 97.2198 17.9565C90.1238 40.4773 89.3713 66.6094 97.7264 87.3219Z" fill="#E6E6E6"/>
<path d="M74.3942 23.5386C76.0471 23.5386 77.387 22.2004 77.387 20.5496C77.387 18.8988 76.0471 17.5605 74.3942 17.5605C72.7413 17.5605 71.4014 18.8988 71.4014 20.5496C71.4014 22.2004 72.7413 23.5386 74.3942 23.5386Z" fill="#E6E6E6"/>
<path d="M69.7851 25.7602V20.0967H70.6668V25.7602C70.9198 25.8624 71.1292 26.0493 71.2593 26.2888C71.3894 26.5283 71.4321 26.8055 71.38 27.073C71.3279 27.3405 71.1842 27.5815 70.9737 27.7548C70.7631 27.9281 70.4988 28.0229 70.226 28.0229C69.9531 28.0229 69.6888 27.9281 69.4782 27.7548C69.2677 27.5815 69.1241 27.3405 69.0719 27.073C69.0198 26.8055 69.0625 26.5283 69.1926 26.2888C69.3227 26.0493 69.5322 25.8624 69.7851 25.7602Z" fill="#E6E6E6"/>
<path d="M65.5225 15.7455C65.5239 14.4436 66.0424 13.1955 66.9642 12.2749C67.8859 11.3543 69.1357 10.8364 70.4392 10.835H78.5626C79.8666 10.835 81.1172 11.3523 82.0392 12.2732C82.9613 13.1941 83.4793 14.4432 83.4793 15.7455C83.4793 17.0479 82.9613 18.2969 82.0392 19.2178C81.1172 20.1388 79.8666 20.6561 78.5626 20.6561H70.4392C69.1357 20.6546 67.8859 20.1368 66.9642 19.2162C66.0424 18.2956 65.5239 17.0475 65.5225 15.7455Z" fill="#BC6752"/>
<path d="M54.0768 46.1551C54.8924 35.7334 59.0626 30.768 56.3924 27.6541C53.8346 24.6714 46.6299 25.2876 42.003 28.1497C29.523 35.8695 24.9508 66.6376 41.0106 81.6703C56.2715 95.9551 85.1939 91.3799 91.6215 79.688C93.1212 76.9599 94.3126 72.1776 92.1176 69.2812C86.6682 62.0905 66.8553 75.1149 58.0463 66.9686C52.8258 62.1409 53.6292 51.8745 54.0768 46.1551Z" fill="#3F3D56"/>
<path d="M63.617 40.9776C63.3139 41.1168 63.0771 41.3687 62.9571 41.6796C62.8371 41.9906 62.8433 42.336 62.9744 42.6424C63.0021 42.7043 63.0348 42.7638 63.0722 42.8203L60.3936 46.3924L61.7302 48.3877L64.8699 43.098C65.0924 42.9248 65.2511 42.6828 65.3215 42.41C65.3918 42.1371 65.3697 41.8487 65.2586 41.5897C65.194 41.443 65.101 41.3104 64.9851 41.1995C64.8691 41.0886 64.7325 41.0016 64.5829 40.9434C64.4333 40.8853 64.2737 40.8572 64.1132 40.8606C63.9527 40.8641 63.7945 40.8991 63.6475 40.9636C63.6373 40.9681 63.6271 40.9728 63.617 40.9776Z" fill="#FFB6B6"/>
<path d="M63.6146 47.1362C63.7899 47.2915 63.3036 47.4831 62.7893 47.1808C62.6421 47.0933 62.5792 47.0569 62.5627 47.0801C62.5213 47.1379 62.7628 47.5641 62.6983 48.5106C62.6586 49.0755 61.7192 50.1377 60.6524 51.1734C59.2101 52.5742 57.533 53.9254 57.533 53.9254L56.9442 53.4546L50.77 48.5106L49.728 47.0702C49.8234 46.5013 49.9667 45.9416 50.1564 45.3968C50.4177 44.6428 50.7282 43.9067 51.0859 43.1932C51.2778 42.805 51.4746 42.435 51.6632 42.0947L54.9711 45.7354L57.7431 48.7848C57.7431 48.7848 58.5502 47.4864 59.1754 47.1329C59.2551 47.0821 59.3458 47.0509 59.44 47.0421C60.0718 47.0123 60.1099 46.6688 59.3772 45.9205C58.6445 45.1722 59.569 45.8709 60.2207 45.6694C60.8723 45.4678 60.2207 45.6694 60.358 45.1656C60.4952 44.6617 62.3229 43.6508 62.3229 43.6508L62.3989 43.7185L63.78 44.936L64.1753 45.2845C64.1753 45.2845 63.7436 46.4672 63.6245 46.7167C63.5054 46.9661 63.4409 46.9793 63.6146 47.1362Z" fill="#BC6752"/>
<path d="M100.021 70.0832L100.088 68.2611L93.0838 67.1348L92.9844 69.8238L100.021 70.0832Z" fill="#FFB6B6"/>
<path d="M98.7495 70.6316L98.6831 67.7142L99.9318 67.7602L101.948 65.0633C102.047 64.9301 102.187 64.8321 102.346 64.7837C102.505 64.7354 102.676 64.7391 102.833 64.7944C102.99 64.8497 103.125 64.9536 103.219 65.0911C103.312 65.2285 103.359 65.3922 103.353 65.5584L103.225 69.0239L101.968 69.5757L103.195 69.8545L103.146 71.1611L98.7495 70.6316Z" fill="#2F2E41"/>
<path d="M60.5977 70.7924L82.7842 71.3543C82.7842 71.3543 92.3652 71.907 94.6131 70.4465L96.9836 70.1476L97.112 66.67C97.112 66.67 95.6625 66.6806 94.8291 66.2928C93.9957 65.905 94.5749 65.4304 93.7803 65.897C92.9857 66.3637 93.0696 66.4198 92.4552 66.2053C91.8409 65.9909 63.6683 61.7021 63.6683 61.7021L60.5977 70.7924Z" fill="#2F2E41"/>
<path d="M89.8336 69.284L91.1238 67.9941L86.7557 62.4102L84.8516 64.3142L89.8336 69.284Z" fill="#FFB6B6"/>
<path d="M88.5278 68.1613L90.4658 65.9775L91.3499 66.8595L94.6644 66.2518C94.8281 66.2217 94.9971 66.2447 95.1468 66.3174C95.2965 66.3901 95.4189 66.5087 95.4964 66.6559C95.5738 66.803 95.6021 66.971 95.5771 67.1354C95.5522 67.2997 95.4753 67.4518 95.3576 67.5694L92.9038 70.023L91.6063 69.5736L92.3157 70.6111L91.3905 71.5362L88.5278 68.1613Z" fill="#2F2E41"/>
<path d="M51.8442 58.6571L52.0648 63.7778C52.3245 69.8061 58.9716 73.4546 64.1259 70.3071C64.2209 70.2491 64.3162 70.189 64.4119 70.1268C64.4119 70.1268 66.3659 69.6027 66.3066 68.7727C66.2473 67.9428 66.7246 67.5388 67.1471 67.7652C67.5695 67.9915 73.1006 60.1516 73.1006 60.1516C73.1006 60.1516 84.5925 65.8768 87.1277 67.2246C87.1277 67.2246 89.5113 63.5024 89.3385 63.5414C89.1657 63.5804 75.1216 53.7632 75.1216 53.7632C75.1216 53.7632 72.8337 51.4506 69.9956 52.9775C69.9365 53.2018 69.987 53.2096 69.987 53.2096L60.6117 60.8394L59.287 58.3267L51.8442 58.6571Z" fill="#2F2E41"/>
<path d="M60.6838 52.2552C60.666 52.4918 60.6323 52.7269 60.5829 52.9589C60.5153 53.2948 60.4065 53.6211 60.2587 53.9302C60.2587 53.9302 60.2587 54.2755 59.5971 55.4318C58.9355 56.5881 59.7625 56.0925 60.2587 56.9515C60.7549 57.8088 60.2587 57.414 59.7079 57.9657C59.5494 58.1263 59.4367 58.3264 59.3818 58.5451C59.3268 58.7638 59.3315 58.9933 59.3953 59.2096C59.3953 59.2096 52.29 59.2146 50.9668 58.719C49.6436 58.2234 49.3426 55.4318 50.5285 55.1559C51.7127 54.8801 50.1696 54.6059 49.4733 53.9699C48.777 53.3339 50.1696 52.2932 50.1696 52.2932C50.1696 52.2932 49.5957 51.3038 49.6436 47.9819C49.6504 47.6763 49.6786 47.3716 49.728 47.07C49.8234 46.5012 49.9667 45.9414 50.1564 45.3967C50.4176 44.6426 50.7281 43.9065 51.0859 43.1931C51.2777 42.8049 51.4746 42.4349 51.6631 42.0946C51.6929 42.0417 51.721 41.9905 51.7508 41.9393C52.1097 41.305 52.4372 40.7863 52.6538 40.4543C52.8209 40.1966 52.9218 40.0512 52.9218 40.0512L54.1258 37.96L58.1449 39.8414L57.9167 42.9189L58.6097 45.2397L58.9289 46.3085L59.1753 47.1328L59.5558 48.4097C59.5558 48.4097 59.4516 48.4146 59.5756 48.5848C60.1469 49.3434 60.5172 50.2337 60.6523 51.1733C60.7 51.5319 60.7105 51.8945 60.6838 52.2552Z" fill="#BC6752"/>
<path d="M72.2907 52.5871L72.2153 52.5627L62.5957 49.4689L66.1405 37.8544C66.211 37.6231 66.3333 37.4108 66.4979 37.2336C66.6626 37.0563 66.8654 36.9187 67.0911 36.8311C67.3167 36.7436 67.5593 36.7083 67.8006 36.728C68.0419 36.7476 68.2756 36.8218 68.484 36.9447L74.6313 40.5721C75.1179 40.8589 75.4881 41.3074 75.6772 41.8391C75.8664 42.3709 75.8624 42.9521 75.666 43.4812L72.2907 52.5871Z" fill="#2F2E41"/>
<path d="M72.3298 53.3259L62.6328 50.2072L66.1776 38.5926C66.2481 38.3614 66.3704 38.1491 66.535 37.9719C66.6997 37.7946 66.9025 37.657 67.1282 37.5694C67.3538 37.4818 67.5964 37.4466 67.8377 37.4662C68.079 37.4859 68.3127 37.56 68.5211 37.683L74.9619 40.8947C75.9295 41.4655 75.9069 42.9429 75.4576 44.1551L72.3298 53.3259Z" fill="#BC6752"/>
<path d="M71.3588 54.166C71.1355 54.2918 70.8884 54.3698 70.6333 54.3952C70.3782 54.4205 70.1205 54.3926 69.8768 54.3132L63.6788 52.3197C63.2032 52.1645 62.8073 51.8298 62.5755 51.387C62.3437 50.9442 62.2945 50.4285 62.4383 49.9499L65.5458 39.7683C65.6079 39.5649 65.71 39.3759 65.8462 39.2124C65.9823 39.049 66.1498 38.9143 66.3388 38.8163C66.5278 38.7184 66.7345 38.6591 66.9467 38.6419C67.1589 38.6248 67.3724 38.6501 67.5747 38.7165L73.9978 40.8228C74.3039 40.9232 74.5867 41.0837 74.8295 41.2951C75.0724 41.5064 75.2704 41.7642 75.4118 42.0532C75.5533 42.3423 75.6352 42.6567 75.653 42.9779C75.6707 43.2991 75.6238 43.6206 75.515 43.9235L72.1926 53.1745C72.0434 53.5946 71.7473 53.9467 71.3588 54.166Z" fill="#3F3D56"/>
<path d="M57.9179 37.9955C60.3696 37.9955 62.3572 36.0104 62.3572 33.5617C62.3572 31.113 60.3696 29.1279 57.9179 29.1279C55.4661 29.1279 53.4785 31.113 53.4785 33.5617C53.4785 36.0104 55.4661 37.9955 57.9179 37.9955Z" fill="#FFB6B6"/>
<path d="M42.9059 38.0629C43.3133 38.8516 43.9813 39.4753 44.7966 39.8281C45.1219 39.9762 45.464 40.0843 45.8154 40.1502C45.9148 39.7568 46.0738 39.3809 46.2869 39.0355C46.2159 39.4248 46.2159 39.8237 46.2869 40.213C46.8223 40.2567 47.3609 40.1899 47.8693 40.0168C48.3686 39.8472 48.8214 39.5637 49.1919 39.1889C49.5624 38.814 49.8403 38.3581 50.0036 37.8573C50.3572 36.682 49.9763 35.4268 49.9463 34.2C49.9154 32.9732 50.4987 31.5058 51.7182 31.354C52.6468 31.2382 52.532 31.3281 53.1993 31.9833C52.2659 33.0189 54.5414 37.6056 55.7625 37.4029C56.4528 37.2884 56.9608 36.741 57.0974 36.7599C57.7965 38.47 55.6934 40.8953 57.3615 41.6915L57.2377 41.5279C56.3646 40.0873 58.9481 37.6542 58.075 36.2136C57.8316 35.8106 57.5785 35.3382 57.7291 34.8924C57.872 34.4685 58.5959 34.3344 58.7486 34.7201C58.5003 33.8359 59.1934 32.7981 60.1139 32.7078C60.9317 32.6272 60.8845 32.86 61.6642 33.0724C61.7639 32.737 61.9074 32.4161 62.0912 32.1182C62.029 32.4581 62.0213 32.8057 62.0685 33.148C62.3497 33.1815 62.6342 33.1213 62.8777 32.9769C63.5977 32.5458 63.6191 31.433 63.1245 30.7557C62.629 30.0783 61.799 29.7438 60.9982 29.4908C60.9908 27.7994 56.4341 26.9898 55.5961 28.5622C55.5098 27.289 54.0485 26.4313 52.7897 26.6476C51.5308 26.8639 50.5377 27.872 49.9322 28.9957C49.3269 30.1185 49.0263 31.3757 48.5832 32.5717C48.14 33.7676 47.5065 34.9601 46.4453 35.6697C45.3842 36.3784 43.8073 36.4428 42.9213 35.5242C42.7193 35.9164 42.6126 36.3506 42.6099 36.7917C42.6072 37.2328 42.7086 37.6683 42.9059 38.0629Z" fill="#2F2E41"/>
<path d="M47.4611 58.3379C47.5529 58.2646 47.6526 58.2015 47.7582 58.15C49.4574 57.3053 54.7416 55.1129 58.8733 55.2029C66.8232 55.376 76.9405 64.1386 74.5859 70.023C72.7942 74.5006 63.8868 77.048 57.3848 75.0106C48.2759 72.1563 44.6805 60.5521 47.4611 58.3379Z" fill="#3F3D56"/>
<path d="M14.4583 90.5956C11.8606 90.1061 9.56113 78.4178 14.672 72.6613C16.4231 70.689 18.6073 69.8306 21.5127 69.0317C38.2354 64.4336 50.9901 68.8158 52.7041 69.8857C54.4143 70.9532 57.4124 87.0378 53.5786 89.3145C51.4215 90.5956 47.146 91.2361 45.0277 89.7416C41.9107 87.5425 47.1426 81.8384 44.8139 77.9989C42.1714 73.6418 28.2561 72.1742 21.2796 76.5043C13.8364 81.1241 29.1892 93.3711 14.4583 90.5956Z" fill="#F2F2F2"/>
<path d="M31.8257 70.7228H21.9015C19.4517 68.3779 17.7 66.118 19.1024 64.2421C19.1024 63.7029 19.3169 63.1858 19.6987 62.8045C20.0804 62.4232 20.5982 62.209 21.1381 62.209H32.5891C33.129 62.209 33.6468 62.4232 34.0285 62.8045C34.4103 63.1858 34.6248 63.7029 34.6248 64.2421C35.1587 66.3796 34.2048 68.5402 31.8257 70.7228Z" fill="#CCCCCC"/>
<path d="M30.0437 59.6492C29.9496 59.6535 29.8564 59.6288 29.7767 59.5785C29.6971 59.5281 29.6349 59.4545 29.5985 59.3677C29.5621 59.2808 29.5534 59.1849 29.5734 59.0929C29.5935 59.0009 29.6413 58.9173 29.7106 58.8534L29.7421 58.7283C29.7379 58.7183 29.7337 58.7083 29.7295 58.6983C29.6347 58.4745 29.4757 58.2837 29.2726 58.1499C29.0696 58.016 28.8314 57.9451 28.5881 57.946C28.3448 57.9469 28.1072 58.0196 27.9051 58.155C27.703 58.2903 27.5455 58.4823 27.4523 58.7067C27.0798 59.6027 26.6056 60.5001 26.4888 61.4474C26.4374 61.8662 26.4591 62.2906 26.553 62.7019C25.6782 60.7961 25.2239 58.7246 25.221 56.628C25.2208 56.1019 25.2501 55.5762 25.3086 55.0533C25.3571 54.6247 25.4242 54.1991 25.5101 53.7766C25.979 51.484 26.9857 49.3352 28.4476 47.5066C29.1551 47.1211 29.7273 46.5282 30.087 45.8078C30.2174 45.5489 30.3095 45.2724 30.3605 44.9871C30.2807 44.9976 30.0596 43.7836 30.1198 43.7091C30.0085 43.5405 29.8094 43.4567 29.688 43.2923C29.0838 42.4742 28.2514 42.617 27.8169 43.7287C26.8886 44.1966 26.8797 44.9726 27.4492 45.7189C27.8116 46.1938 27.8614 46.8362 28.1793 47.3446C28.1466 47.3864 28.1126 47.4269 28.0799 47.4687C27.4819 48.2367 26.9608 49.0613 26.5239 49.9307C26.6301 48.9567 26.5033 47.9714 26.1539 47.0558C25.7997 46.2025 25.1359 45.4839 24.5514 44.7463C23.8493 43.8602 22.4095 44.2469 22.2858 45.3701C22.2846 45.381 22.2834 45.3918 22.2822 45.4027C22.3691 45.4516 22.4541 45.5035 22.5372 45.5585C22.6417 45.6282 22.7226 45.7278 22.7695 45.8442C22.8163 45.9607 22.8268 46.0885 22.7996 46.211C22.7725 46.3336 22.7089 46.445 22.6172 46.5308C22.5255 46.6166 22.41 46.6727 22.2858 46.6918L22.2731 46.6938C22.304 47.0063 22.3587 47.3161 22.4366 47.6203C21.6867 50.5168 23.3057 51.5717 25.6174 51.6191C25.6685 51.6452 25.7182 51.6714 25.7692 51.6962C25.3303 52.9386 25.0549 54.2327 24.9501 55.546C24.8908 56.3208 24.8943 57.0991 24.9606 57.8734L24.9567 57.8459C24.7892 56.985 24.3293 56.2081 23.6548 55.6466C22.6529 54.8246 21.2374 54.5219 20.1566 53.8612C20.0417 53.7876 19.9082 53.7483 19.7717 53.7479C19.6352 53.7476 19.5014 53.7863 19.3862 53.8594C19.271 53.9325 19.1791 54.0369 19.1213 54.1605C19.0636 54.284 19.0425 54.4215 19.0604 54.5566C19.0618 54.5663 19.0633 54.5759 19.0648 54.5855C19.2259 54.651 19.3828 54.7265 19.5345 54.8116C19.6214 54.8605 19.7064 54.9124 19.7895 54.9673C19.894 55.037 19.9749 55.1366 20.0218 55.2531C20.0686 55.3695 20.0791 55.4974 20.0519 55.6199C20.0247 55.7424 19.9611 55.8539 19.8695 55.9397C19.7778 56.0255 19.6623 56.0816 19.5381 56.1007L19.5254 56.1027C19.5162 56.104 19.5084 56.1053 19.4992 56.1066C19.7745 56.7631 20.1609 57.3674 20.6415 57.893C21.1104 60.4214 23.1243 60.6613 25.2786 59.925H25.2799C25.5162 60.9508 25.8587 61.9494 26.3018 62.9045H29.9523C29.9654 62.864 29.9771 62.8221 29.9889 62.7816C29.651 62.8028 29.3118 62.7827 28.9788 62.7215C29.2496 62.3896 29.5205 62.0551 29.7913 61.7231C29.7974 61.7169 29.8031 61.7104 29.8083 61.7035C29.9457 61.5337 30.0844 61.3651 30.2218 61.1952L30.2219 61.195C30.2292 60.6743 30.1692 60.1547 30.0437 59.6492Z" fill="#CCCCCC"/>
<path d="M42.4949 70.192C42.5554 70.368 42.6703 70.5204 42.823 70.6272C42.9756 70.734 43.1583 70.7898 43.3446 70.7864L46.9853 70.6928C47.173 70.6892 47.3545 70.625 47.5027 70.5098C47.6508 70.3945 47.7577 70.2345 47.8072 70.0537L48.3224 64.5515C48.5052 64.6342 48.7042 64.6751 48.9048 64.671C49.2569 64.6622 49.591 64.5141 49.8336 64.2593C50.0763 64.0044 50.2077 63.6637 50.1988 63.3121C50.19 62.9606 50.0417 62.6269 49.7865 62.3845C49.5313 62.1421 49.1902 62.0109 48.8382 62.0198C48.758 62.0195 48.678 62.0278 48.5996 62.0446C48.5143 61.9524 48.4107 61.8791 48.2953 61.8294C48.1799 61.7797 48.0554 61.7546 47.9298 61.7559L42.3296 61.9003C42.2831 61.902 42.2369 61.9078 42.1914 61.9175C42.0686 61.9403 41.9521 61.9892 41.8498 62.0608C41.7475 62.1324 41.6617 62.2251 41.5983 62.3325C41.5348 62.44 41.4952 62.5598 41.482 62.6839C41.4687 62.808 41.4823 62.9334 41.5217 63.0518L42.4949 70.192ZM48.4281 64.1779L48.7947 62.8668C48.8364 62.7153 48.8374 62.5556 48.7975 62.4036C48.8153 62.4036 48.831 62.3951 48.8488 62.3951C49.1001 62.39 49.3432 62.4846 49.5248 62.6582C49.7064 62.8318 49.8117 63.0702 49.8176 63.3212C49.8235 63.5722 49.7295 63.8153 49.5562 63.9972C49.3829 64.1791 49.1445 64.2849 48.8932 64.2916C48.7307 64.2966 48.5699 64.2574 48.4281 64.1779Z" fill="#CCCCCC"/>
<path d="M42.1914 61.9167C42.3107 62.598 43.6521 63.077 45.2651 62.9937C46.7483 62.9255 47.961 62.4053 48.1832 61.7888C48.101 61.7646 48.0155 61.7532 47.9298 61.7551L42.3295 61.8995C42.2831 61.9012 42.2369 61.907 42.1914 61.9167Z" fill="white"/>
<path d="M0.194976 90.8533L122.805 90.9036C122.857 90.9036 122.906 90.8831 122.943 90.8466C122.979 90.81 123 90.7605 123 90.7089C123 90.6572 122.979 90.6077 122.943 90.5712C122.906 90.5347 122.857 90.5141 122.805 90.5141L0.194976 90.4639C0.143265 90.4639 0.0936725 90.4844 0.0571072 90.5209C0.0205418 90.5574 0 90.607 0 90.6586C0 90.7103 0.0205418 90.7598 0.0571072 90.7963C0.0936725 90.8328 0.143265 90.8533 0.194976 90.8533Z" fill="#CACACA"/>
<path d="M68.9631 47.3324C68.6296 47.3446 68.3141 47.4862 68.0836 47.7271C67.8531 47.9681 67.7259 48.2893 67.729 48.6226C67.7306 48.6903 67.7379 48.7577 67.7508 48.8243L63.9028 51.0932L64.3686 53.4483L69.3034 49.771C69.5754 49.6965 69.8151 49.5341 69.9851 49.3093C70.155 49.0844 70.2456 48.8096 70.2428 48.5279C70.2396 48.3676 70.2049 48.2095 70.1406 48.0626C70.0762 47.9157 69.9836 47.7829 69.8678 47.6718C69.7521 47.5607 69.6156 47.4735 69.4661 47.415C69.3167 47.3566 69.1571 47.3281 68.9966 47.3313C68.9854 47.3315 68.9742 47.3319 68.9631 47.3324Z" fill="#FFB6B6"/>
<path d="M65.811 52.7422C65.708 52.6045 65.6638 52.5468 65.6404 52.5626C65.5801 52.5989 65.6381 53.0855 65.2143 53.9336C64.6177 55.125 58.3622 56.9498 58.3622 56.9498L57.5921 55.5416L54.2044 49.353L53.0367 44.3926C52.9959 44.2197 52.976 44.0424 52.9776 43.8648C54.0187 43.133 55.1243 42.4974 56.2808 41.9658C56.7429 42.2276 57.0951 42.6468 57.2732 43.1467L59.6051 49.677L60.5357 52.2843C60.5357 52.2843 62.1772 51.112 62.7726 51.3272C63.367 51.5437 63.536 51.2401 63.1474 50.2682C62.7588 49.2963 63.3421 50.2968 64.0208 50.3603C64.7009 50.4249 64.0208 50.3603 64.342 49.9479C64.6633 49.5355 66.7401 49.3035 66.7401 49.3035L66.7843 49.3955L67.5891 51.049L67.8195 51.5241C67.8195 51.5241 66.9663 52.4487 66.7604 52.633C66.5536 52.8186 66.4897 52.8058 66.591 53.0172C66.6909 53.2277 66.1685 53.2182 65.811 52.7422Z" fill="#BC6752"/>
</g>
<defs>
<clipPath id="clip0_46_39286">
<rect width="123" height="91" fill="white"/>
</clipPath>
</defs>
</svg>
