<svg width="123" height="90" viewBox="0 0 123 90" fill="none" xmlns="http://www.w3.org/2000/svg">
<g clip-path="url(#clip0_46_39316)">
<path d="M37.5785 76.1653C38.0384 71.5624 40.7662 66.9727 45.0935 65.375C43.4851 70.1399 43.6085 75.3219 45.4418 80.0043C46.1554 81.8075 47.1362 83.7386 46.5492 85.5872C46.1839 86.7374 45.2448 87.6332 44.1849 88.2047C43.1249 88.7761 41.9403 89.0647 40.7705 89.3477L40.5436 89.5452C38.5766 85.3612 37.1185 80.7683 37.5785 76.1653Z" fill="#F0F0F0"/>
<path d="M45.1388 65.4608C42.6659 68.3774 41.172 72.0016 40.8691 75.8186C40.7894 76.6391 40.839 77.4672 41.0163 78.2722C41.2143 79.0508 41.6164 79.762 42.181 80.3319C42.6968 80.874 43.287 81.3685 43.6624 82.0268C43.8496 82.3667 43.9631 82.7424 43.9954 83.1294C44.0277 83.5163 43.9782 83.9058 43.8499 84.2721C43.5541 85.1934 42.946 85.953 42.3255 86.6752C41.6366 87.477 40.9084 88.2989 40.6324 89.3466C40.5989 89.4736 40.4045 89.4141 40.4379 89.2873C40.9182 87.4644 42.6456 86.3942 43.4423 84.7436C43.814 83.9734 43.9567 83.0862 43.5722 82.2917C43.2359 81.597 42.6278 81.0865 42.1008 80.5423C41.5419 79.9944 41.1253 79.3175 40.8872 78.5708C40.6696 77.7775 40.5882 76.9527 40.6465 76.132C40.7483 74.282 41.1393 72.4597 41.8053 70.7316C42.5546 68.7552 43.6353 66.9219 45.0007 65.3111C45.0853 65.2114 45.2228 65.3617 45.1388 65.4608Z" fill="white"/>
<path d="M40.8949 74.5844C40.2634 74.4465 39.7014 74.0879 39.3092 73.5726C38.917 73.0574 38.7201 72.419 38.7537 71.7716C38.7553 71.7452 38.7671 71.7205 38.7865 71.7026C38.8059 71.6847 38.8315 71.6751 38.8579 71.6758C38.8842 71.6765 38.9093 71.6874 38.9277 71.7063C38.9462 71.7251 38.9567 71.7505 38.9569 71.7769C38.9245 72.3798 39.108 72.9744 39.4742 73.4534C39.8404 73.9325 40.3652 74.2644 40.954 74.3893C41.0819 74.4166 41.0221 74.6116 40.8949 74.5844Z" fill="white"/>
<path d="M41.8836 80.0922C43.0014 79.3859 43.8127 78.2829 44.1559 77.0031C44.1898 76.8762 44.3842 76.9357 44.3503 77.0624C43.9908 78.3935 43.1441 79.5397 41.9793 80.2721C41.8682 80.3419 41.7731 80.1616 41.8836 80.0922Z" fill="white"/>
<path d="M42.7476 68.944C42.9808 69.0484 43.2363 69.0931 43.491 69.074C43.7457 69.0549 43.9917 68.9727 44.2068 68.8347C44.317 68.7635 44.412 68.9439 44.3025 69.0145C44.0641 69.1659 43.7923 69.2564 43.5109 69.2781C43.2296 69.2998 42.9472 69.2521 42.6885 69.139C42.6632 69.1304 42.6421 69.1125 42.6296 69.0889C42.617 69.0653 42.6139 69.0377 42.6208 69.0119C42.6288 68.9861 42.6465 68.9645 42.6703 68.9518C42.694 68.9391 42.7218 68.9363 42.7476 68.944Z" fill="white"/>
<path d="M58.5865 73.2547C58.519 73.3011 58.4514 73.3474 58.3839 73.3955C57.4795 74.0236 56.6274 74.7244 55.8361 75.4909C55.774 75.5492 55.7119 75.6092 55.6516 75.6692C53.7648 77.5363 52.2399 79.7386 51.1545 82.1642C50.7235 83.1298 50.3663 84.1269 50.0861 85.1468C49.6991 86.5555 49.3913 88.1137 48.5868 89.2775C48.5042 89.3999 48.4142 89.517 48.3171 89.6282L40.8014 89.8078C40.7842 89.7996 40.7668 89.7931 40.7495 89.7849L40.4497 89.8058C40.4605 89.7522 40.4728 89.6968 40.4836 89.6432C40.4898 89.6121 40.4976 89.5809 40.5037 89.5498C40.5083 89.529 40.513 89.5083 40.516 89.4893C40.5175 89.4823 40.5191 89.4754 40.5207 89.4702C40.5236 89.4512 40.5284 89.4339 40.5314 89.4166C40.5996 89.1069 40.67 88.7971 40.7427 88.4872C40.7427 88.4855 40.7427 88.4855 40.7443 88.4838C41.3043 86.1243 42.0655 83.791 43.1556 81.6479C43.1884 81.5834 43.2211 81.5172 43.2573 81.4526C43.754 80.4893 44.3284 79.5684 44.9746 78.6989C45.33 78.224 45.7091 77.7674 46.1106 77.3309C47.1499 76.2051 48.3593 75.2504 49.6944 74.5016C52.3561 73.0094 55.4639 72.3878 58.3654 73.1911C58.4396 73.2117 58.5122 73.2324 58.5865 73.2547Z" fill="#F0F0F0"/>
<path d="M58.5717 73.3511C54.8469 74.1863 51.479 76.1776 48.9466 79.0423C48.3905 79.6493 47.9332 80.3405 47.5916 81.0903C47.2824 81.8315 47.1767 82.6423 47.2855 83.4384C47.372 84.1827 47.5464 84.934 47.4511 85.6865C47.3966 86.0709 47.2618 86.4394 47.0553 86.7679C46.8489 87.0964 46.5756 87.3774 46.2534 87.5925C45.4643 88.1493 44.5228 88.3886 43.5941 88.5904C42.5628 88.8145 41.4882 89.0309 40.639 89.7007C40.5361 89.7819 40.4166 89.617 40.5193 89.5359C41.9968 88.3705 44.0182 88.5594 45.6449 87.7227C46.404 87.3323 47.0503 86.71 47.2201 85.8434C47.3686 85.0857 47.1893 84.3108 47.0952 83.5579C46.9778 82.7828 47.0513 81.9907 47.3093 81.2508C47.6117 80.4859 48.0417 79.7782 48.5808 79.1581C49.7722 77.7425 51.1781 76.5236 52.7469 75.5462C54.5313 74.4207 56.4944 73.6096 58.5513 73.1482C58.6786 73.1197 58.6982 73.3228 58.5717 73.3511Z" fill="white"/>
<path d="M49.7082 78.0709C49.2868 77.5794 49.0533 76.9536 49.0494 76.3053C49.0454 75.6569 49.2713 75.0283 49.6867 74.5317C49.7711 74.4315 49.9303 74.5583 49.8457 74.6587C49.4581 75.1204 49.2477 75.706 49.2526 76.3097C49.2575 76.9134 49.4774 77.4955 49.8725 77.9508C49.9583 78.0499 49.7935 78.1694 49.7082 78.0709Z" fill="white"/>
<path d="M47.192 83.0659C48.5084 83.1771 49.8182 82.7865 50.8602 81.9719C50.9634 81.8911 51.0829 82.056 50.9799 82.1367C49.8939 82.9824 48.5301 83.3861 47.1605 83.2674C47.0299 83.256 47.0622 83.0546 47.192 83.0659Z" fill="white"/>
<path d="M54.5726 74.6872C54.6962 74.9115 54.8733 75.1015 55.0881 75.2401C55.3029 75.3787 55.5487 75.4616 55.8034 75.4814C55.934 75.4911 55.9016 75.6925 55.7718 75.6828C55.4906 75.6596 55.2192 75.5677 54.9816 75.4151C54.7439 75.2625 54.5471 75.0538 54.4083 74.8073C54.3933 74.7851 54.3873 74.7581 54.3914 74.7316C54.3956 74.7052 54.4096 74.6813 54.4306 74.6648C54.4525 74.6491 54.4796 74.6426 54.5062 74.6467C54.5328 74.6509 54.5567 74.6655 54.5726 74.6872Z" fill="white"/>
<path d="M76.6398 71.7512C76.5143 71.7511 76.3897 71.7291 76.2717 71.6862L74.0542 70.8828L74.0551 70.8804C73.8054 70.7687 73.6071 70.5664 73.4999 70.3141C73.3926 70.0618 73.3845 69.7782 73.477 69.5202L79.5448 52.6621C79.738 52.1258 80.1286 51.6841 80.6365 51.428C81.1443 51.1718 81.7307 51.1207 82.275 51.2851C82.8192 51.4494 83.28 51.8168 83.5625 52.3117C83.845 52.8065 83.9277 53.3912 83.7936 53.9453C83.7745 54.0234 83.7513 54.1004 83.7241 54.1761L77.6563 71.0341C77.5806 71.2438 77.4425 71.4251 77.2607 71.5534C77.0788 71.6817 76.8621 71.7508 76.6398 71.7512Z" fill="#BC6752"/>
<path d="M90.9942 89.7843H88.7138C88.4271 89.784 88.1522 89.6695 87.9495 89.4661C87.7467 89.2627 87.6326 88.9869 87.6323 88.6993V69.6319C87.6326 69.3442 87.7467 69.0684 87.9495 68.865C88.1522 68.6616 88.4271 68.5472 88.7138 68.5469H90.9942C91.281 68.5472 91.5559 68.6616 91.7586 68.865C91.9614 69.0684 92.0754 69.3442 92.0757 69.6319V88.6993C92.0754 88.9869 91.9614 89.2627 91.7586 89.4661C91.5559 89.6695 91.281 89.784 90.9942 89.7843Z" fill="#BC6752"/>
<path d="M85.8658 89.7843H83.5854C83.2987 89.784 83.0238 89.6695 82.821 89.4661C82.6183 89.2627 82.5042 88.9869 82.5039 88.6993V69.6319C82.5042 69.3442 82.6183 69.0684 82.821 68.865C83.0238 68.6616 83.2987 68.5472 83.5854 68.5469H85.8658C86.1526 68.5472 86.4275 68.6616 86.6302 68.865C86.833 69.0684 86.947 69.3442 86.9473 69.6319V88.6993C86.947 88.9869 86.833 89.2627 86.6302 89.4661C86.4275 89.6695 86.1526 89.784 85.8658 89.7843Z" fill="#BC6752"/>
<path d="M87.2214 47.7955C91.5732 47.7955 95.101 44.2563 95.101 39.8904C95.101 35.5246 91.5732 31.9854 87.2214 31.9854C82.8696 31.9854 79.3418 35.5246 79.3418 39.8904C79.3418 44.2563 82.8696 47.7955 87.2214 47.7955Z" fill="#BC6752"/>
<path d="M88.1428 43.2089C87.632 43.1947 86.9963 43.1769 86.5066 42.818C86.3608 42.7067 86.241 42.5648 86.1556 42.4022C86.0702 42.2396 86.0212 42.0603 86.0122 41.8767C86.0034 41.7462 86.0247 41.6155 86.0745 41.4947C86.1244 41.3738 86.2014 41.2662 86.2996 41.1802C86.5554 40.9634 86.9289 40.9125 87.3314 41.0312L86.9144 37.9737L87.2205 37.9316L87.7108 41.5261L87.4552 41.4084C87.1588 41.272 86.7519 41.2026 86.4991 41.417C86.437 41.473 86.3887 41.5427 86.3578 41.6205C86.3269 41.6983 86.3143 41.7823 86.321 41.8658C86.3285 42.0024 86.3652 42.1358 86.4287 42.2569C86.4922 42.378 86.581 42.484 86.6889 42.5676C87.07 42.8469 87.5767 42.8829 88.1514 42.899L88.1428 43.2089Z" fill="#2F2E41"/>
<path d="M85.4006 38.2373H83.7363V38.5473H85.4006V38.2373Z" fill="#2F2E41"/>
<path d="M90.6535 38.2373H88.9893V38.5473H90.6535V38.2373Z" fill="#2F2E41"/>
<path d="M97.8581 71.6179C97.6413 71.6175 97.4295 71.5519 97.2502 71.4296C97.0709 71.3073 96.9321 71.134 96.8519 70.9319L90.2747 54.2672C90.1673 53.9951 90.1144 53.7044 90.1189 53.4117C90.1235 53.119 90.1855 52.8302 90.3013 52.5615C90.4172 52.2929 90.5847 52.0498 90.7942 51.8461C91.0037 51.6424 91.2512 51.4821 91.5224 51.3743C91.7937 51.2666 92.0835 51.2135 92.3752 51.218C92.6669 51.2226 92.9549 51.2848 93.2226 51.4011C93.4904 51.5173 93.7327 51.6853 93.9358 51.8955C94.1388 52.1057 94.2986 52.3539 94.406 52.6261L100.983 69.2909C101.04 69.4329 101.065 69.5855 101.059 69.7383C101.049 69.9474 100.98 70.1493 100.858 70.3197C100.737 70.4902 100.57 70.6219 100.376 70.6991L98.2555 71.5413C98.1291 71.5918 97.9942 71.6178 97.8581 71.6179Z" fill="#BC6752"/>
<path d="M93.0105 64.4562L95.1731 54.6398C95.1731 53.7143 94.8067 52.8268 94.1544 52.1724C93.5021 51.518 92.6175 51.1504 91.695 51.1504H82.274C81.3516 51.1504 80.4669 51.518 79.8146 52.1724C79.1623 52.8268 78.7959 53.7143 78.7959 54.6398L81.4002 64.3816C79.9022 64.5778 78.7959 65.2663 78.7959 66.0856L82.504 73.0824L92.0831 73.1606L95.1731 66.0856C95.1731 65.3492 94.279 64.7187 93.0105 64.4562Z" fill="#2F2E41"/>
<path d="M95.9343 37.0471C95.5421 35.044 94.4705 33.2389 92.9017 31.9387C91.3329 30.6385 89.3638 29.9235 87.3289 29.9151C85.2941 29.9067 83.3191 30.6055 81.7398 31.8927C80.1604 33.1799 79.0741 34.9761 78.6654 36.9759C77.9684 37.2602 77.3916 37.7787 77.0336 38.4426C76.6757 39.1065 76.559 39.8747 76.7034 40.6154C76.8478 41.3562 77.2444 42.0236 77.8253 42.5033C78.4062 42.9831 79.1352 43.2453 79.8876 43.2452V36.7351C79.7052 36.7362 79.5232 36.7527 79.3436 36.7844C79.782 34.9987 80.8052 33.4122 82.2491 32.2791C83.693 31.1461 85.4742 30.5319 87.3074 30.5351C89.1406 30.5382 90.9197 31.1585 92.3597 32.2965C93.7998 33.4346 94.8175 35.0245 95.2498 36.8117C95.0217 36.7612 94.7888 36.7355 94.5551 36.7351V43.2452C95.2927 43.2456 96.0084 42.9938 96.5841 42.5313C97.1598 42.0687 97.5611 41.4231 97.7218 40.7009C97.8825 39.9787 97.793 39.2232 97.468 38.5589C97.143 37.8947 96.6021 37.3614 95.9343 37.0471Z" fill="#2F2E41"/>
<path d="M91.3351 36.2633C89.9191 35.5581 88.3311 35.2753 86.7596 35.4483C85.903 35.5356 85.05 35.6703 84.1969 35.7866C83.4819 35.884 82.6696 36.013 82.0152 35.6234C80.904 34.962 80.7062 33.3568 80.9427 32.2003C81.0665 31.5661 81.3249 30.966 81.7006 30.441C82.0762 29.9159 82.5602 29.4783 83.1196 29.1577C83.7847 28.7984 84.5286 28.611 85.2841 28.6124C86.0396 28.6139 86.7827 28.8042 87.4465 29.1662C87.4999 29.1955 87.5626 29.2032 87.6215 29.1877C87.6805 29.1722 87.7313 29.1347 87.7635 29.0828C88.5921 27.9589 89.7152 27.0065 91.0363 26.5275C92.2572 26.1022 93.5744 26.0387 94.8304 26.3445C96.1058 26.6445 97.2963 27.2321 98.3115 28.0626C99.3687 28.9488 100.23 30.0464 100.841 31.2852C102.203 33.9637 102.518 37.0379 102.416 40.0034C102.356 41.7293 102.164 43.4467 101.973 45.1618C101.878 46.0205 101.783 46.8793 101.705 47.7397C101.616 48.4761 101.614 49.2206 101.701 49.9573C101.79 50.6502 102.085 51.3002 102.547 51.8232C102.988 52.2889 103.543 52.6301 104.157 52.8128C105.54 53.2436 107.003 52.8776 108.236 52.1868C108.565 52.0009 108.881 51.7952 109.185 51.5707C109.423 51.3959 109.192 50.9923 108.951 51.1692C107.78 52.0276 106.322 52.7324 104.833 52.4945C104.2 52.4037 103.604 52.1381 103.113 51.7272C102.603 51.2661 102.269 50.6413 102.169 49.9601C102.038 49.217 102.104 48.4479 102.172 47.7018C102.251 46.8414 102.346 45.9826 102.441 45.1239C102.633 43.3962 102.826 41.6661 102.882 39.9275C102.978 36.9522 102.641 33.889 101.311 31.19C100.709 29.931 99.8604 28.8062 98.8165 27.8824C97.8146 27.0151 96.6384 26.3743 95.3678 26.0034C94.122 25.6317 92.8012 25.5925 91.5356 25.8895C90.1865 26.2492 88.97 26.9933 88.0334 28.0318C87.795 28.2911 87.5713 28.5636 87.3633 28.8481L87.6804 28.7647C87.0512 28.4197 86.3555 28.2139 85.6403 28.1614C84.9252 28.1088 84.207 28.2106 83.5344 28.46C82.8814 28.7109 82.2901 29.1002 81.8008 29.6013C81.3115 30.1025 80.9357 30.7036 80.6992 31.3638C80.2379 32.6132 80.2391 34.201 81.0368 35.3193C81.2447 35.6176 81.5175 35.8646 81.8345 36.0416C82.1516 36.2186 82.5046 36.3209 82.8669 36.3409C83.2721 36.3582 83.678 36.3337 84.0782 36.2678C84.5254 36.208 84.9724 36.1461 85.4196 36.0851C86.404 35.9509 87.3889 35.8008 88.3847 35.8878C89.3309 35.973 90.2525 36.2366 91.1012 36.6648C91.3671 36.7985 91.6021 36.3975 91.3351 36.2633Z" fill="#2F2E41"/>
<path d="M122.816 90H22.8079C22.7592 89.9998 22.7126 89.9803 22.6782 89.9457C22.6438 89.9111 22.6245 89.8643 22.6245 89.8154C22.6245 89.7666 22.6438 89.7197 22.6782 89.6851C22.7126 89.6505 22.7592 89.631 22.8079 89.6309H122.816C122.865 89.631 122.912 89.6505 122.946 89.6851C122.98 89.7197 123 89.7666 123 89.8154C123 89.8643 122.98 89.9111 122.946 89.9457C122.912 89.9803 122.865 89.9998 122.816 90Z" fill="#3F3D56"/>
<path d="M50.522 25.4207C50.522 26.509 50.4528 27.5963 50.315 28.6758H0.361315C0.223505 27.5963 0.154362 26.509 0.154306 25.4207C0.151467 22.101 0.800772 18.8133 2.06511 15.7455C3.32944 12.6776 5.18402 9.88987 7.52284 7.54148C9.86166 5.19309 12.6389 3.33012 15.6957 2.05907C18.7526 0.788014 22.0291 0.133789 25.3382 0.133789C28.6472 0.133789 31.9237 0.788014 34.9806 2.05907C38.0374 3.33012 40.8147 5.19309 43.1535 7.54148C45.4923 9.88987 47.3469 12.6776 48.6112 15.7455C49.8755 18.8133 50.5249 22.101 50.522 25.4207Z" fill="#F0F0F0"/>
<path d="M25.3384 50.8408C12.6301 50.8408 1.82652 41.3203 0.208279 28.6953C0.0699494 27.6092 0.000385805 26.5154 9.27098e-06 25.4205C-0.00283861 22.0804 0.650455 18.7726 1.92255 15.6859C3.19465 12.5993 5.06061 9.79442 7.41377 7.43163C9.76694 5.06883 12.5612 3.19445 15.6368 1.9156C18.7124 0.636752 22.0091 -0.0214844 25.3384 -0.0214844C28.6677 -0.0214844 31.9643 0.636752 35.0399 1.9156C38.1155 3.19445 40.9098 5.06883 43.263 7.43163C45.6161 9.79442 47.4821 12.5993 48.7542 15.6859C50.0263 18.7726 50.6796 22.0804 50.6767 25.4205C50.6763 26.5154 50.6068 27.6092 50.4685 28.6952C48.8502 41.3203 38.0466 50.8408 25.3384 50.8408ZM25.3384 0.310273C13.6633 0.310273 3.38039 8.60301 0.887925 20.0286C0.502389 21.7998 0.308296 23.6076 0.309014 25.4205C0.309392 26.5022 0.378119 27.5829 0.514778 28.6559C2.11326 41.1265 12.7851 50.5308 25.3384 50.5308C37.8917 50.5308 48.5635 41.1265 50.162 28.6558C50.2986 27.5828 50.3674 26.5022 50.3677 25.4205C50.3684 23.6076 50.1743 21.7998 49.7888 20.0286C47.2963 8.60301 37.0135 0.310273 25.3384 0.310273Z" fill="#3F3D56"/>
<path d="M41.2409 33.4277H9.43534C9.28077 33.4277 9.13253 33.4893 9.02324 33.599C8.91394 33.7086 8.85254 33.8574 8.85254 34.0124C8.85254 34.1675 8.91394 34.3162 9.02324 34.4259C9.13253 34.5355 9.28077 34.5971 9.43534 34.5971H41.2409C41.3953 34.5969 41.5433 34.5351 41.6524 34.4255C41.7615 34.3159 41.8227 34.1673 41.8227 34.0124C41.8227 33.8575 41.7615 33.7089 41.6524 33.5993C41.5433 33.4897 41.3953 33.428 41.2409 33.4277Z" fill="#CACACA"/>
<path d="M30.3619 33.4277V34.5971H9.43537C9.28096 34.5969 9.13297 34.5351 9.02388 34.4255C8.91479 34.3159 8.85352 34.1673 8.85352 34.0124C8.85352 33.8575 8.91479 33.7089 9.02388 33.5993C9.13297 33.4897 9.28096 33.428 9.43537 33.4277H30.3619Z" fill="#BC6752"/>
<path d="M30.3619 35.1815C31.0056 35.1815 31.5275 34.658 31.5275 34.0121C31.5275 33.3663 31.0056 32.8428 30.3619 32.8428C29.7182 32.8428 29.1963 33.3663 29.1963 34.0121C29.1963 34.658 29.7182 35.1815 30.3619 35.1815Z" fill="#BC6752"/>
<path d="M25.3385 45.063C24.7621 45.063 24.1987 44.8915 23.7195 44.5703C23.2402 44.249 22.8667 43.7924 22.6461 43.2582C22.4256 42.724 22.3679 42.1362 22.4803 41.569C22.5928 41.0019 22.8703 40.481 23.2779 40.0721C23.6854 39.6632 24.2047 39.3848 24.77 39.272C25.3353 39.1592 25.9212 39.2171 26.4537 39.4384C26.9862 39.6596 27.4413 40.0344 27.7615 40.5152C28.0817 40.9959 28.2526 41.5612 28.2526 42.1394C28.2518 42.9145 27.9445 43.6576 27.3981 44.2057C26.8518 44.7538 26.1111 45.0621 25.3385 45.063ZM25.3385 39.4407C24.8065 39.4407 24.2864 39.599 23.844 39.8955C23.4016 40.1921 23.0568 40.6135 22.8532 41.1067C22.6496 41.5998 22.5964 42.1424 22.7002 42.6659C22.804 43.1894 23.0602 43.6703 23.4364 44.0477C23.8126 44.4251 24.2919 44.6821 24.8137 44.7862C25.3355 44.8904 25.8764 44.8369 26.3679 44.6327C26.8594 44.4284 27.2796 44.0825 27.5751 43.6387C27.8707 43.1949 28.0285 42.6732 28.0285 42.1394C28.0277 41.4239 27.744 40.738 27.2397 40.232C26.7354 39.7261 26.0517 39.4415 25.3385 39.4407Z" fill="#BC6752"/>
<path d="M24.9534 43.7129C24.9237 43.7129 24.8952 43.7011 24.8741 43.68C24.8531 43.6589 24.8413 43.6303 24.8413 43.6005V40.6769C24.8413 40.6621 24.8442 40.6475 24.8498 40.6339C24.8555 40.6202 24.8637 40.6078 24.8741 40.5974C24.8845 40.5869 24.8969 40.5787 24.9105 40.573C24.9241 40.5674 24.9387 40.5645 24.9534 40.5645C24.9681 40.5645 24.9827 40.5674 24.9963 40.573C25.0099 40.5787 25.0222 40.5869 25.0326 40.5974C25.0431 40.6078 25.0513 40.6202 25.0569 40.6339C25.0626 40.6475 25.0655 40.6621 25.0655 40.6769V43.6005C25.0655 43.6303 25.0537 43.6589 25.0326 43.68C25.0116 43.7011 24.9831 43.7129 24.9534 43.7129Z" fill="#BC6752"/>
<path d="M25.7234 43.7129C25.6937 43.7129 25.6652 43.7011 25.6442 43.68C25.6231 43.6589 25.6113 43.6303 25.6113 43.6005V40.6769C25.6113 40.6621 25.6142 40.6475 25.6199 40.6339C25.6255 40.6202 25.6338 40.6078 25.6442 40.5974C25.6546 40.5869 25.6669 40.5787 25.6805 40.573C25.6941 40.5674 25.7087 40.5645 25.7234 40.5645C25.7381 40.5645 25.7527 40.5674 25.7663 40.573C25.7799 40.5787 25.7923 40.5869 25.8027 40.5974C25.8131 40.6078 25.8213 40.6202 25.827 40.6339C25.8326 40.6475 25.8355 40.6621 25.8355 40.6769V43.6005C25.8355 43.6303 25.8237 43.6589 25.8027 43.68C25.7816 43.7011 25.7531 43.7129 25.7234 43.7129Z" fill="#BC6752"/>
<path d="M11.9907 42.1394C11.9907 41.5612 12.1616 40.9959 12.4818 40.5152C12.8021 40.0344 13.2572 39.6596 13.7897 39.4384C14.3222 39.2171 14.9081 39.1592 15.4734 39.272C16.0387 39.3848 16.558 39.6632 16.9655 40.0721C17.3731 40.481 17.6506 41.0019 17.7631 41.569C17.8755 42.1362 17.8178 42.724 17.5972 43.2582C17.3767 43.7924 17.0031 44.249 16.5239 44.5703C16.0447 44.8915 15.4813 45.063 14.9049 45.063C14.1323 45.0621 13.3916 44.7538 12.8452 44.2057C12.2989 43.6576 11.9916 42.9145 11.9907 42.1394ZM12.2149 42.1394C12.2149 42.6732 12.3727 43.1949 12.6682 43.6387C12.9638 44.0825 13.3839 44.4284 13.8755 44.6327C14.367 44.8369 14.9079 44.8904 15.4297 44.7862C15.9515 44.6821 16.4308 44.4251 16.807 44.0477C17.1832 43.6703 17.4394 43.1894 17.5432 42.6659C17.647 42.1424 17.5937 41.5998 17.3901 41.1067C17.1865 40.6135 16.8417 40.1921 16.3994 39.8955C15.957 39.599 15.4369 39.4407 14.9049 39.4407C14.1917 39.4415 13.508 39.7261 13.0037 40.232C12.4994 40.738 12.2157 41.4239 12.2149 42.1394Z" fill="#3F3D56"/>
<path d="M16.1638 43.1238C16.1843 43.1238 16.2043 43.117 16.2206 43.1045C16.2369 43.0919 16.2486 43.0744 16.2539 43.0545C16.2592 43.0346 16.2578 43.0135 16.25 42.9945C16.2421 42.9754 16.2283 42.9595 16.2105 42.9493L14.8123 42.1394L16.2105 41.3296C16.2318 41.3172 16.2473 41.2968 16.2537 41.2728C16.26 41.2489 16.2566 41.2235 16.2443 41.202C16.232 41.1806 16.2117 41.165 16.1879 41.1585C16.1641 41.1521 16.1387 41.1553 16.1173 41.1676L14.5793 42.0584C14.5651 42.0666 14.5534 42.0785 14.5452 42.0927C14.537 42.1069 14.5327 42.123 14.5327 42.1394C14.5327 42.1559 14.537 42.172 14.5452 42.1862C14.5534 42.2004 14.5651 42.2122 14.5793 42.2204L16.1173 43.1113C16.1314 43.1195 16.1474 43.1238 16.1638 43.1238Z" fill="#3F3D56"/>
<path d="M14.1015 43.4478C14.1262 43.4478 14.1499 43.4379 14.1674 43.4204C14.1849 43.4028 14.1947 43.3791 14.1947 43.3543V40.923C14.1948 40.9107 14.1924 40.8985 14.1877 40.8871C14.1831 40.8757 14.1762 40.8653 14.1676 40.8566C14.1589 40.8479 14.1486 40.841 14.1373 40.8363C14.1259 40.8315 14.1138 40.8291 14.1015 40.8291C14.0892 40.8291 14.0771 40.8315 14.0658 40.8363C14.0544 40.841 14.0441 40.8479 14.0355 40.8566C14.0268 40.8653 14.02 40.8757 14.0153 40.8871C14.0106 40.8985 14.0083 40.9107 14.0083 40.923V43.3543C14.0083 43.3791 14.0181 43.4028 14.0356 43.4204C14.0531 43.4379 14.0768 43.4478 14.1015 43.4478Z" fill="#3F3D56"/>
<path d="M35.7716 45.063C35.1952 45.063 34.6318 44.8915 34.1526 44.5703C33.6733 44.249 33.2998 43.7924 33.0793 43.2582C32.8587 42.724 32.801 42.1362 32.9134 41.569C33.0259 41.0019 33.3034 40.481 33.711 40.0721C34.1185 39.6632 34.6378 39.3848 35.2031 39.272C35.7684 39.1592 36.3543 39.2171 36.8868 39.4384C37.4193 39.6596 37.8744 40.0344 38.1946 40.5152C38.5148 40.9959 38.6858 41.5612 38.6858 42.1394C38.6849 42.9145 38.3776 43.6576 37.8313 44.2057C37.2849 44.7538 36.5442 45.0621 35.7716 45.063ZM35.7716 39.4407C35.2396 39.4407 34.7195 39.599 34.2771 39.8955C33.8347 40.1921 33.49 40.6135 33.2864 41.1067C33.0828 41.5998 33.0295 42.1424 33.1333 42.6659C33.2371 43.1894 33.4933 43.6703 33.8695 44.0477C34.2457 44.4251 34.725 44.6821 35.2468 44.7862C35.7686 44.8904 36.3095 44.8369 36.801 44.6327C37.2925 44.4284 37.7127 44.0825 38.0082 43.6387C38.3038 43.1949 38.4616 42.6732 38.4616 42.1394C38.4608 41.4239 38.1771 40.738 37.6728 40.232C37.1685 39.7261 36.4848 39.4415 35.7716 39.4407Z" fill="#3F3D56"/>
<path d="M34.5132 43.1238C34.4927 43.1238 34.4727 43.117 34.4564 43.1045C34.4402 43.0919 34.4284 43.0744 34.4231 43.0545C34.4178 43.0346 34.4192 43.0135 34.427 42.9945C34.4349 42.9754 34.4487 42.9595 34.4665 42.9493L35.8647 42.1394L34.4665 41.3296C34.4452 41.3172 34.4297 41.2968 34.4233 41.2728C34.417 41.2489 34.4204 41.2235 34.4327 41.202C34.445 41.1806 34.4653 41.165 34.4891 41.1585C34.5129 41.1521 34.5383 41.1553 34.5597 41.1676L36.0977 42.0584C36.1119 42.0666 36.1236 42.0785 36.1318 42.0927C36.14 42.1069 36.1443 42.123 36.1443 42.1394C36.1443 42.1559 36.14 42.172 36.1318 42.1862C36.1236 42.2004 36.1119 42.2122 36.0977 42.2204L34.5597 43.1113C34.5456 43.1195 34.5296 43.1238 34.5132 43.1238Z" fill="#3F3D56"/>
<path d="M36.5751 43.4478C36.5504 43.4478 36.5267 43.4379 36.5092 43.4204C36.4918 43.4028 36.4819 43.3791 36.4819 43.3543V40.923C36.4819 40.9107 36.4843 40.8985 36.4889 40.8871C36.4936 40.8757 36.5004 40.8653 36.5091 40.8566C36.5178 40.8479 36.5281 40.841 36.5394 40.8363C36.5507 40.8315 36.5629 40.8291 36.5751 40.8291C36.5874 40.8291 36.5996 40.8315 36.6109 40.8363C36.6222 40.841 36.6325 40.8479 36.6412 40.8566C36.6498 40.8653 36.6567 40.8757 36.6614 40.8871C36.666 40.8985 36.6684 40.9107 36.6684 40.923V43.3543C36.6684 43.3791 36.6585 43.4028 36.6411 43.4204C36.6236 43.4379 36.5999 43.4478 36.5751 43.4478Z" fill="#3F3D56"/>
<path d="M31.123 23.0173H23.5707C23.0767 23.0167 22.6031 22.8196 22.2538 22.4692C21.9046 22.1188 21.7081 21.6436 21.7075 21.1481V13.5713C21.7081 13.0758 21.9046 12.6007 22.2538 12.2502C22.6031 11.8998 23.0767 11.7027 23.5707 11.7021H31.123C31.617 11.7027 32.0906 11.8998 32.4399 12.2502C32.7891 12.6007 32.9856 13.0758 32.9862 13.5713V21.1481C32.9856 21.6436 32.7891 22.1188 32.4399 22.4692C32.0906 22.8196 31.617 23.0167 31.123 23.0173Z" fill="white"/>
<path d="M28.1876 20.7699H20.6352C20.1208 20.7693 19.6276 20.5641 19.2638 20.1991C18.9 19.8342 18.6954 19.3393 18.6948 18.8232V11.2465C18.6954 10.7304 18.9 10.2356 19.2638 9.87061C19.6276 9.50567 20.1208 9.30038 20.6352 9.2998H28.1876C28.702 9.30038 29.1952 9.50567 29.559 9.87061C29.9228 10.2356 30.1274 10.7304 30.128 11.2465V18.8232C30.1274 19.3393 29.9228 19.8342 29.559 20.1991C29.1952 20.5641 28.702 20.7693 28.1876 20.7699ZM20.6352 9.60981C20.2027 9.6103 19.788 9.78289 19.4822 10.0897C19.1764 10.3966 19.0043 10.8126 19.0038 11.2465V18.8232C19.0043 19.2572 19.1764 19.6732 19.4822 19.98C19.788 20.2868 20.2027 20.4594 20.6352 20.4599H28.1876C28.6201 20.4594 29.0348 20.2868 29.3406 19.98C29.6465 19.6732 29.8185 19.2572 29.819 18.8232V11.2465C29.8185 10.8126 29.6465 10.3966 29.3406 10.0897C29.0348 9.78289 28.6201 9.6103 28.1876 9.60981H20.6352Z" fill="white"/>
</g>
<defs>
<clipPath id="clip0_46_39316">
<rect width="123" height="90" fill="white"/>
</clipPath>
</defs>
</svg>
