<svg width="123" height="94" viewBox="0 0 123 94" fill="none" xmlns="http://www.w3.org/2000/svg">
<g clip-path="url(#clip0_46_39383)">
<path d="M49.2185 19.4934H48.7698V7.14623C48.7698 6.20778 48.5858 5.27851 48.2283 4.41149C47.8707 3.54447 47.3467 2.75668 46.6861 2.09309C46.0254 1.4295 45.2411 0.903109 44.378 0.543977C43.5148 0.184845 42.5897 7.95134e-07 41.6554 0H15.6125C13.7256 -3.61308e-06 11.916 0.752896 10.5818 2.09307C9.24761 3.43324 8.49805 5.25091 8.49805 7.14621V74.8839C8.49805 75.8224 8.68207 76.7517 9.0396 77.6187C9.39713 78.4857 9.92118 79.2735 10.5818 79.9371C11.2425 80.6007 12.0267 81.1271 12.8899 81.4862C13.7531 81.8453 14.6782 82.0302 15.6125 82.0302H41.6554C43.5422 82.0302 45.3518 81.2773 46.686 79.9371C48.0203 78.5969 48.7698 76.7793 48.7698 74.884V28.2824H49.2185V19.4934Z" fill="#3F3D56"/>
<path d="M41.9422 1.85938H38.5428C38.6991 2.24436 38.7588 2.66206 38.7165 3.07567C38.6743 3.48929 38.5314 3.88612 38.3006 4.23121C38.0697 4.5763 37.7578 4.85906 37.3925 5.05458C37.0272 5.25011 36.6197 5.35239 36.2057 5.35242H21.2861C20.8722 5.35239 20.4646 5.25011 20.0993 5.05459C19.734 4.85907 19.4221 4.5763 19.1912 4.23121C18.9604 3.88612 18.8175 3.48929 18.7753 3.07568C18.733 2.66206 18.7927 2.24436 18.949 1.85938H15.7739C15.0762 1.85937 14.3853 1.99741 13.7407 2.26561C13.0961 2.5338 12.5104 2.9269 12.0171 3.42246C11.5237 3.91802 11.1324 4.50634 10.8654 5.15382C10.5984 5.8013 10.4609 6.49527 10.4609 7.19609V74.8344C10.4609 75.5353 10.5984 76.2292 10.8654 76.8767C11.1324 77.5242 11.5237 78.1125 12.0171 78.6081C12.5104 79.1036 13.0961 79.4967 13.7407 79.7649C14.3853 80.0331 15.0762 80.1712 15.7739 80.1712H41.9422C42.6399 80.1712 43.3308 80.0331 43.9754 79.7649C44.62 79.4967 45.2057 79.1036 45.6991 78.6081C46.1924 78.1125 46.5838 77.5242 46.8508 76.8767C47.1178 76.2292 47.2552 75.5353 47.2552 74.8344V7.19609C47.2552 6.49527 47.1178 5.8013 46.8508 5.15382C46.5838 4.50634 46.1924 3.91802 45.6991 3.42246C45.2057 2.9269 44.62 2.5338 43.9754 2.26561C43.3308 1.99741 42.6399 1.85937 41.9422 1.85938Z" fill="white"/>
<path d="M57.5657 82.042H0.150696C0.110729 82.042 0.0723985 82.026 0.0441376 81.9977C0.0158767 81.9693 0 81.9308 0 81.8906C0 81.8505 0.0158767 81.812 0.0441376 81.7836C0.0723985 81.7552 0.110729 81.7393 0.150696 81.7393H57.5657C57.6057 81.7393 57.644 81.7552 57.6722 81.7836C57.7005 81.812 57.7164 81.8505 57.7164 81.8906C57.7164 81.9308 57.7005 81.9693 57.6722 81.9977C57.644 82.026 57.6057 82.042 57.5657 82.042Z" fill="#CBCBCB"/>
<path d="M28.858 52.3248C35.8862 52.3248 41.5837 46.6019 41.5837 39.5423C41.5837 32.4827 35.8862 26.7598 28.858 26.7598C21.8298 26.7598 16.1323 32.4827 16.1323 39.5423C16.1323 46.6019 21.8298 52.3248 28.858 52.3248Z" fill="#BC6752"/>
<path d="M27.5972 44.419C27.3109 44.4195 27.0322 44.3264 26.8032 44.1539L26.789 44.1432L23.7983 41.8452C23.6597 41.7385 23.5435 41.6055 23.4562 41.4537C23.3688 41.3019 23.3121 41.1344 23.2893 40.9606C23.2664 40.7868 23.2779 40.6101 23.323 40.4408C23.3681 40.2714 23.4459 40.1126 23.5521 39.9735C23.6583 39.8344 23.7907 39.7176 23.9419 39.6299C24.093 39.5422 24.2598 39.4852 24.4328 39.4623C24.6059 39.4393 24.7817 39.4508 24.9503 39.4961C25.1189 39.5414 25.277 39.6196 25.4155 39.7263L27.3526 41.2184L31.9302 35.2198C32.0363 35.0807 32.1687 34.964 32.3198 34.8763C32.4708 34.7886 32.6376 34.7317 32.8105 34.7088C32.9835 34.6858 33.1593 34.6973 33.3278 34.7426C33.4963 34.7879 33.6543 34.8661 33.7928 34.9727L33.7932 34.973L33.7648 35.0126L33.7939 34.973C34.0733 35.1886 34.256 35.5067 34.3021 35.8576C34.3482 36.2084 34.2538 36.5632 34.0397 36.8443L28.6555 43.8968C28.5309 44.0593 28.3708 44.1908 28.1874 44.2811C28.0041 44.3714 27.8025 44.418 27.5984 44.4174L27.5972 44.419Z" fill="white"/>
<path d="M104.62 83.2987C104.774 83.0472 104.957 82.8139 105.163 82.6031C105.248 82.5145 105.338 82.431 105.43 82.3497C105.993 81.8467 106.679 81.5032 107.417 81.3547C108.156 81.2062 108.921 81.258 109.633 81.5047C110.345 81.7515 110.979 82.1843 111.469 82.7586C111.959 83.333 112.289 84.0282 112.423 84.7727C113.044 82.464 111.426 80.1899 109.8 78.4431C108.172 76.6969 106.312 74.7813 106.322 72.3886C106.326 71.0572 106.975 69.8694 107.954 68.9889C107.984 68.9622 108.014 68.9355 108.045 68.9098C109.228 67.891 110.75 67.3582 112.308 67.4176C115.201 67.5732 117.727 69.5264 119.481 71.8432C122.305 75.571 123.543 80.8038 121.566 85.0473C119.827 88.7795 116.118 90.9958 112.333 92.7775C111.805 93.0264 111.277 93.2677 110.751 93.5016C110.748 93.5025 110.744 93.505 110.74 93.5059C110.715 93.5171 110.69 93.5283 110.666 93.5398C110.557 93.5879 110.448 93.6361 110.341 93.6837L110.391 93.7164L110.546 93.8176C110.492 93.7848 110.439 93.753 110.385 93.7202C110.369 93.7102 110.352 93.7009 110.336 93.6909C108.477 92.5705 106.592 91.3852 105.308 89.6361C103.976 87.82 103.441 85.2186 104.62 83.2987Z" fill="#F1F1F1"/>
<path d="M117.022 79.0807C117.434 80.0213 117.707 81.0172 117.832 82.0369C117.931 82.9462 117.894 83.8652 117.722 84.7635C117.353 86.6093 116.548 88.3392 115.375 89.8075C114.49 90.9222 113.468 91.92 112.334 92.7773C111.805 93.0261 111.278 93.2675 110.751 93.5013C110.748 93.5023 110.744 93.5048 110.74 93.5057C110.715 93.5169 110.69 93.5281 110.666 93.5396C110.557 93.5877 110.449 93.6359 110.341 93.6834L110.391 93.7162L110.546 93.8174C110.492 93.7846 110.439 93.7527 110.385 93.7199C110.369 93.71 110.352 93.7006 110.336 93.6907C110.745 92.2533 110.805 90.7383 110.512 89.2728C110.218 87.8072 109.578 86.4338 108.647 85.2675C107.711 84.116 106.517 83.2029 105.163 82.6029C105.248 82.5142 105.338 82.4307 105.43 82.3495C105.952 82.5901 106.451 82.8765 106.923 83.2055C108.609 84.3759 109.875 86.0605 110.533 88.0099C111.121 89.7784 111.195 91.6787 110.745 93.4877C110.838 93.4264 110.932 93.3635 111.023 93.3009C112.755 92.1279 114.351 90.719 115.553 88.9914C116.59 87.5312 117.253 85.8374 117.485 84.0591C117.716 82.1164 117.232 80.2061 116.368 78.4728C115.415 76.6183 114.213 74.9036 112.797 73.3762C111.375 71.8066 109.767 70.4177 108.009 69.2405C107.969 69.2136 107.941 69.1725 107.931 69.1256C107.921 69.0787 107.929 69.0297 107.954 68.9886C107.972 68.9512 108.005 68.9228 108.045 68.9096C108.065 68.9044 108.086 68.9039 108.106 68.908C108.127 68.9122 108.146 68.9208 108.162 68.9334C108.379 69.0789 108.595 69.2257 108.807 69.3768C110.578 70.6361 112.186 72.1114 113.594 73.7689C114.955 75.3666 116.194 77.1417 117.022 79.0807Z" fill="white"/>
<path d="M79.1215 5.93517C80.6141 5.93517 81.8241 4.71978 81.8241 3.22052C81.8241 1.72125 80.6141 0.505859 79.1215 0.505859C77.6289 0.505859 76.4189 1.72125 76.4189 3.22052C76.4189 4.71978 77.6289 5.93517 79.1215 5.93517Z" fill="#F1F1F1"/>
<path d="M112.726 42.2633C113.636 42.2633 114.374 41.5223 114.374 40.6082C114.374 39.6941 113.636 38.9531 112.726 38.9531C111.816 38.9531 111.079 39.6941 111.079 40.6082C111.079 41.5223 111.816 42.2633 112.726 42.2633Z" fill="#F1F1F1"/>
<path d="M64.5042 46.8053C65.4142 46.8053 66.1519 46.0643 66.1519 45.1502C66.1519 44.2361 65.4142 43.4951 64.5042 43.4951C63.5942 43.4951 62.8564 44.2361 62.8564 45.1502C62.8564 46.0643 63.5942 46.8053 64.5042 46.8053Z" fill="#F1F1F1"/>
<path d="M65.4344 94H122.849C122.889 94 122.928 93.9841 122.956 93.9557C122.984 93.9273 123 93.8888 123 93.8486C123 93.8085 122.984 93.77 122.956 93.7416C122.928 93.7132 122.889 93.6973 122.849 93.6973H65.4344C65.3944 93.6973 65.3561 93.7132 65.3278 93.7416C65.2996 93.77 65.2837 93.8085 65.2837 93.8486C65.2837 93.8888 65.2996 93.9273 65.3278 93.9557C65.3561 93.9841 65.3944 94 65.4344 94Z" fill="#CBCBCB"/>
<path d="M116.513 14.6278C116.589 14.0901 116.465 13.5434 116.166 13.0911C115.867 12.6389 115.413 12.3126 114.89 12.174C114.368 12.0355 113.813 12.0943 113.33 12.3394C112.848 12.5844 112.472 12.9987 112.273 13.5037L107.614 18.8689L108.981 22.7041L113.667 16.4351C113.973 16.5334 114.296 16.5633 114.615 16.5225C114.933 16.4817 115.239 16.3713 115.51 16.199C115.782 16.0266 116.012 15.7967 116.185 15.5252C116.359 15.2537 116.471 14.9474 116.513 14.6278Z" fill="#FFB7B7"/>
<path d="M97.2005 35.5034L112.666 18.9241L110.58 15.5928L91.1821 32.0714L97.2005 35.5034Z" fill="#3F3D56"/>
<path d="M93.7488 25.4298C96.7449 25.4298 99.1738 22.9901 99.1738 19.9805C99.1738 16.971 96.7449 14.5312 93.7488 14.5312C90.7526 14.5312 88.3237 16.971 88.3237 19.9805C88.3237 22.9901 90.7526 25.4298 93.7488 25.4298Z" fill="#2F2E41"/>
<path d="M94.1851 16.9019C95.3524 15.7128 96.7651 14.7952 98.3236 14.2137C99.324 13.8414 100.413 13.6114 101.459 13.8228C102.505 14.0343 103.494 14.761 103.786 15.7918C104.024 16.6347 103.778 17.5422 103.408 18.3356C103.037 19.1291 102.543 19.8648 102.244 20.6879C101.938 21.5277 101.846 22.4308 101.976 23.3154C102.106 24.1999 102.454 25.0377 102.989 25.7529C103.523 26.4681 104.226 27.0379 105.036 27.4106C105.845 27.7834 106.734 27.9472 107.622 27.8873C106.594 28.0257 105.647 28.5108 104.642 28.769C103.638 29.0272 102.452 29.0097 101.706 28.2869C100.916 27.5221 100.9 26.2787 100.938 25.1774C100.995 23.5404 101.052 21.9033 101.109 20.2662C101.138 19.4314 101.162 18.5698 100.863 17.7905C100.563 17.0113 99.8506 16.329 99.0189 16.3361C98.3886 16.3414 97.8308 16.725 97.3253 17.1032C96.8198 17.4814 96.2849 17.885 95.657 17.9412C95.0292 17.9975 94.3124 17.5308 94.3594 16.8994L94.1851 16.9019Z" fill="#2F2E41"/>
<path d="M73.1442 56.5697C72.6234 56.7151 72.0676 56.6634 71.5822 56.4247C71.0967 56.1859 70.7153 55.7765 70.5103 55.2741C70.3052 54.7718 70.2907 54.2113 70.4696 53.6989C70.6484 53.1866 71.0082 52.7579 71.4807 52.4942L76.1674 47.1533L80.1314 48.0136L74.5561 53.4989C74.6932 53.7905 74.7649 54.1088 74.7662 54.4313C74.7676 54.7538 74.6985 55.0726 74.5639 55.3654C74.4293 55.6582 74.2324 55.9177 73.9871 56.1258C73.7419 56.3339 73.4541 56.4854 73.1442 56.5697Z" fill="#FFB7B7"/>
<path d="M88.5636 37.4492L76.8824 52.1774L73.3218 50.5354L87.0516 29.0645L88.5636 37.4492Z" fill="#3F3D56"/>
<path d="M79.2429 81.9228L76.459 81.8789L76.7938 91.41H79.2425L79.2429 81.9228Z" fill="#FFB7B7"/>
<path d="M79.867 90.6066L75.0446 90.6064H75.0444C74.2294 90.6065 73.4477 90.9317 72.8714 91.5106C72.2951 92.0895 71.9712 92.8747 71.9712 93.6934V93.7937L79.8669 93.794L79.867 90.6066Z" fill="#2F2E41"/>
<path d="M97.6755 79.3945L94.6343 81.3557L100.718 88.7069L102.778 87.378L97.6755 79.3945Z" fill="#FFB7B7"/>
<path d="M102.872 86.3633L98.8138 88.9802L98.8136 88.9803C98.1278 89.4227 97.645 90.1206 97.4714 90.9205C97.2978 91.7204 97.4477 92.5568 97.888 93.2458L97.9419 93.3302L104.586 89.0454L102.872 86.3633Z" fill="#2F2E41"/>
<path d="M98.759 50.2903C98.759 50.2903 92.0019 27.7473 89.8303 27.4427C87.6588 27.1381 84.1599 33.227 84.1599 33.227C79.6235 39.0408 74.9458 57.873 74.9458 57.873C74.9458 57.873 82.7438 58.3631 88.4441 61.4095C94.1444 64.4558 100.872 61.2552 100.872 61.2552L98.759 50.2903Z" fill="#3F3D56"/>
<path opacity="0.1" d="M98.759 50.2912C98.759 50.2912 92.0019 27.7482 89.8303 27.4436C87.6588 27.1389 85.0486 33.2896 85.0486 33.2896C82.7881 42.6745 74.9458 57.8738 74.9458 57.8738C74.9458 57.8738 82.7438 58.364 88.4441 61.4103C94.1444 64.4567 100.872 61.2561 100.872 61.2561L98.759 50.2912Z" fill="black"/>
<path d="M93.2152 43.5461V54.8738L94.5423 71.2828L101.173 83.695L98.0083 85.9656L88.9666 74.1588L85.3904 62.4354L79.7742 88.3875L75.5547 88.0847L78.4851 52.1027L84.0459 41.9746L93.2152 43.5461Z" fill="#2F2E41"/>
<path d="M86.4026 32.5899C84.2929 34.7091 86.2519 36.9796 86.2519 36.9796L83.8408 42.4289L93.3346 45.0021L96.6524 30.1107L94.392 27.6888C89.8711 27.5375 89.8686 27.4434 89.8686 27.4434C89.0766 28.222 86.4026 32.5899 86.4026 32.5899Z" fill="#BC6752"/>
<path d="M97.0344 28.5678C96.6032 28.2481 96.1132 28.0175 95.5926 27.8894C95.0721 27.7613 94.5314 27.7382 94.0019 27.8214C93.4725 27.9047 92.9647 28.0926 92.508 28.3744C92.0513 28.6561 91.6549 29.0261 91.3416 29.4629C88.9549 32.8009 86.748 38.191 89.7887 44.9134C94.6711 55.7074 98.9198 61.2331 100.647 61.2325C100.722 61.2331 100.797 61.2213 100.869 61.1975C101.932 60.8352 103.469 59.0281 103.748 57.4356C103.847 56.8656 103.824 56.0716 103.145 55.5265C101.196 53.9604 97.6962 49.084 96.6046 42.6656C96.0013 39.1191 97.1712 35.8885 98.2589 33.803C98.7183 32.94 98.8527 31.9397 98.6375 30.9853C98.4222 30.0309 97.8717 29.1864 97.0869 28.6066L97.0344 28.5678Z" fill="#3F3D56"/>
<path d="M94.0279 24.8947C95.9632 23.8321 96.6744 21.3948 95.6165 19.4509C94.5586 17.507 92.1322 16.7926 90.1969 17.8552C88.2617 18.9179 87.5505 21.3551 88.6084 23.299C89.6663 25.2429 92.0927 25.9573 94.0279 24.8947Z" fill="#FFB7B7"/>
<path d="M86.4961 21.0717H92.2625L92.3217 20.2401L92.6173 21.0717H93.5053L93.6224 19.4235L94.2084 21.0717H95.9265V20.9901C95.9252 19.8426 95.4708 18.7425 94.6631 17.9312C93.8553 17.1198 92.7602 16.6634 91.6178 16.6621H90.8048C89.6625 16.6634 88.5673 17.1198 87.7595 17.9312C86.9518 18.7425 86.4974 19.8426 86.4961 20.9901V21.0717Z" fill="#2F2E41"/>
<path d="M95.0555 24.0605L97.5163 23.2585V17.2559H92.8682L92.9832 17.3713C94.5843 18.9774 96.365 24.6759 95.0555 24.0605Z" fill="#2F2E41"/>
</g>
<defs>
<clipPath id="clip0_46_39383">
<rect width="123" height="94" fill="white"/>
</clipPath>
</defs>
</svg>
