<svg width="125" height="90" viewBox="0 0 125 90" fill="none" xmlns="http://www.w3.org/2000/svg">
<g clip-path="url(#clip0_46_39355)">
<path d="M20.9756 86.3914C20.8754 86.396 20.7763 86.3698 20.6916 86.3161C20.6069 86.2625 20.5407 86.1842 20.502 86.0917C20.4633 85.9992 20.454 85.8971 20.4753 85.7992C20.4967 85.7012 20.5476 85.6122 20.6212 85.5442L20.6547 85.411C20.6503 85.4003 20.6459 85.3897 20.6414 85.379C20.5405 85.1408 20.3714 84.9376 20.1554 84.7951C19.9394 84.6526 19.6861 84.5771 19.4273 84.5781C19.1685 84.579 18.9158 84.6564 18.7008 84.8005C18.4859 84.9446 18.3183 85.149 18.2192 85.388C17.823 86.3419 17.3186 87.2974 17.1945 88.306C17.1398 88.7518 17.1628 89.2037 17.2626 89.6416C16.3322 87.6125 15.849 85.407 15.8459 83.1748C15.8457 82.6147 15.8768 82.0549 15.9391 81.4983C15.9906 81.0419 16.0621 80.5888 16.1535 80.1389C16.6522 77.698 17.7229 75.4102 19.2778 73.4634C20.0304 73.0529 20.639 72.4216 21.0216 71.6547C21.1603 71.379 21.2582 71.0847 21.3125 70.7809C21.2276 70.7921 20.9924 69.4995 21.0564 69.4202C20.9381 69.2407 20.7264 69.1515 20.5972 68.9764C19.9546 68.1054 19.0692 68.2575 18.607 69.4411C17.6197 69.9393 17.6101 70.7655 18.216 71.5601C18.6014 72.0656 18.6544 72.7496 18.9925 73.2909C18.9577 73.3354 18.9215 73.3785 18.8868 73.423C18.2507 74.2407 17.6964 75.1186 17.2317 76.0443C17.3447 75.0072 17.2098 73.9582 16.8382 72.9834C16.4615 72.0749 15.7554 71.3098 15.1337 70.5245C14.3869 69.5811 12.8554 69.9928 12.7239 71.1887C12.7226 71.2002 12.7213 71.2118 12.7201 71.2234C12.8125 71.2755 12.9029 71.3307 12.9913 71.3892C13.1024 71.4634 13.1886 71.5695 13.2384 71.6935C13.2882 71.8174 13.2993 71.9536 13.2704 72.084C13.2415 72.2144 13.1739 72.3331 13.0764 72.4245C12.9788 72.5158 12.856 72.5756 12.7239 72.5959L12.7104 72.598C12.7433 72.9308 12.8014 73.2605 12.8843 73.5845C12.0867 76.6682 13.8087 77.7914 16.2676 77.8419C16.3218 77.8697 16.3747 77.8975 16.429 77.924C15.9621 79.2467 15.6693 80.6245 15.5578 82.0228C15.4947 82.8477 15.4984 83.6764 15.5689 84.5007L15.5648 84.4715C15.3866 83.5549 14.8975 82.7278 14.18 82.1299C13.1144 81.2548 11.6088 80.9325 10.4592 80.2291C10.337 80.1506 10.1949 80.1088 10.0497 80.1084C9.90455 80.1081 9.76229 80.1492 9.63973 80.2271C9.51717 80.3049 9.41943 80.4161 9.35803 80.5477C9.29663 80.6792 9.27415 80.8256 9.29322 80.9695C9.29476 80.9797 9.29633 80.9899 9.29792 81.0002C9.4693 81.07 9.63616 81.1503 9.79754 81.2409C9.88989 81.293 9.98029 81.3482 10.0687 81.4067C10.1799 81.4809 10.266 81.587 10.3158 81.711C10.3656 81.8349 10.3767 81.9711 10.3478 82.1015C10.3189 82.2319 10.2513 82.3506 10.1538 82.4419C10.0562 82.5333 9.9334 82.5931 9.80132 82.6134L9.78779 82.6155C9.77805 82.6169 9.76969 82.6183 9.75997 82.6197C10.0528 83.3186 10.4638 83.962 10.9749 84.5216C11.4737 87.2136 13.6158 87.469 15.9071 86.6851H15.9085C16.1599 87.7773 16.5242 88.8404 16.9954 89.8573H20.8783C20.8922 89.8142 20.9047 89.7696 20.9173 89.7265C20.5579 89.7491 20.197 89.7276 19.8429 89.6625C20.1309 89.3091 20.419 88.9529 20.7071 88.5995C20.7135 88.5929 20.7196 88.586 20.7252 88.5787C20.8713 88.3978 21.0189 88.2183 21.165 88.0375L21.1651 88.0372C21.1728 87.4828 21.1091 86.9296 20.9756 86.3914Z" fill="#F2F2F2"/>
<path d="M25.4419 89.7703H31.7076C32.7792 86.163 31.7133 77.638 33.1258 74.1535C35.8357 67.4725 39.2977 60.4231 45.7594 57.1609C48.5184 55.768 51.5266 55.224 54.5987 55.2536C58.8426 55.2938 63.2058 56.4327 67.2004 57.9421C68.8345 58.5581 70.4536 59.2355 72.0664 59.9278C78.1424 62.5379 84.1525 65.381 90.6866 66.1494C98.9549 67.1211 108.676 63.4228 110.935 55.4568C112.658 49.358 109.554 43.0262 106.299 37.5794C103.043 32.1326 99.4044 26.3047 99.9989 19.9983C100.001 19.9772 100.003 19.9539 100.007 19.9327C100.231 17.6676 101.584 16.0397 103.474 14.9961H95.2458C95.1371 20.879 98.5416 26.0718 101.605 31.199C104.861 36.6437 107.965 42.9775 106.241 49.0764C103.983 57.0403 85.2831 47.705 77.0148 46.7312C74.6798 46.4581 78.3889 47.4298 76.1626 46.7312C72.6708 45.6367 72.2837 55.6749 68.8856 54.2015C66.77 53.2827 64.6524 52.3703 62.507 51.5596C61.6186 51.223 60.711 50.9076 59.7928 50.6154C59.792 50.6154 59.7912 50.6152 59.7904 50.6148C59.7897 50.6144 59.7891 50.6139 59.7885 50.6133C53.623 48.6615 46.8801 47.9015 41.1832 50.7234C41.1449 50.7424 41.1044 50.7615 41.066 50.7805C34.6043 54.0406 31.1423 61.09 28.4324 67.771C26.1933 73.294 26.5455 83.9445 25.4419 89.7703Z" fill="#F2F2F2"/>
<path d="M62.583 89.5861C32.004 90.2336 31.3335 76.8427 31.3335 60.915C31.3335 44.9873 45.2778 32.5273 62.5574 32.5273C79.8371 32.5273 93.5605 44.9826 93.5605 60.91C93.5605 76.8373 79.8627 89.5861 62.583 89.5861Z" fill="white"/>
<path d="M62.4092 89.7596C31.8302 90.4071 31.1597 77.0162 31.1597 61.0885C31.1597 45.1608 45.2177 32.2031 62.4974 32.2031C79.7771 32.2031 93.8352 45.1612 93.8352 61.0885C93.8352 77.0158 79.6888 89.7596 62.4092 89.7596ZM62.4974 32.9979C45.6931 32.9979 32.305 45.6015 32.022 61.0885C31.7587 75.4933 48.3606 93.4685 62.4974 89.1794C70.0786 81.4834 91.5126 73.1943 92.9729 61.0885C94.8298 45.6942 79.3017 32.9979 62.4974 32.9979Z" fill="#3F3D56"/>
<path d="M9.17544e-07 89.7931C-8.026e-05 89.8204 0.00522582 89.8474 0.0156139 89.8725C0.026002 89.8977 0.0412671 89.9206 0.060531 89.9399C0.0797949 89.9591 0.102677 89.9744 0.127862 89.9848C0.153047 89.9951 0.180037 90.0004 0.207279 90.0004H124.793C124.848 90.0004 124.9 89.9785 124.939 89.9397C124.978 89.9008 125 89.8481 125 89.7931C125 89.7382 124.978 89.6855 124.939 89.6466C124.9 89.6078 124.848 89.5859 124.793 89.5859H0.207279C0.180037 89.5859 0.153047 89.5912 0.127863 89.6015C0.102679 89.6119 0.0797963 89.6272 0.0605325 89.6464C0.0412688 89.6657 0.0260037 89.6886 0.0156153 89.7138C0.00522699 89.7389 -7.95665e-05 89.7659 9.17544e-07 89.7931Z" fill="#CCCCCC"/>
<path d="M83.9478 87.141H81.7964L80.7729 78.8447L83.9483 78.8449L83.9478 87.141Z" fill="#A0616A"/>
<path d="M84.0236 89.3843L77.4077 89.3841V89.3005C77.4078 88.6177 77.6791 87.9629 78.162 87.4802C78.6449 86.9974 79.2999 86.7262 79.9828 86.7261L81.1914 85.8096L83.4462 86.7263L84.0237 86.7263L84.0236 89.3843Z" fill="#2F2E41"/>
<path d="M80.6785 67.91C78.2217 65.525 75.3983 63.5492 72.3158 62.0577L70.7436 63.832L71.7449 61.7878C67.6192 59.9043 63.1404 58.918 58.6049 58.894C54.0693 58.87 49.5804 59.809 45.435 61.6489L46.2518 63.4226L44.9975 61.8463C41.7594 63.352 38.7961 65.3888 36.2303 67.8721C35.9665 68.1179 35.8036 68.4528 35.7731 68.812C35.7599 69.0071 35.7888 69.2028 35.8579 69.3858C35.9269 69.5688 36.0344 69.7348 36.1731 69.8727C36.5685 70.0598 37.1318 70.4892 37.9688 71.6677C38.2255 71.9208 38.5709 72.0637 38.9314 72.0659C39.2919 72.0681 39.639 71.9295 39.8988 71.6796C44.8696 66.8692 51.5167 64.1798 58.4349 64.1798C65.353 64.1798 72.0001 66.8692 76.9709 71.6796C77.2307 71.9295 77.5778 72.0681 77.9383 72.0659C78.2988 72.0637 78.6442 71.9208 78.9009 71.6677C79.7432 70.9104 79.94 69.8398 80.6635 69.9055C80.9184 69.6592 81.073 69.3273 81.0976 68.9737C81.1083 68.7767 81.0764 68.5797 81.0041 68.3962C80.9318 68.2126 80.8207 68.0468 80.6785 67.91Z" fill="#BC6752"/>
<path d="M64.2759 70.4916L62.1245 70.4914L61.1011 62.1953L64.2763 62.1955L64.2759 70.4916Z" fill="#A0616A"/>
<path d="M64.3517 72.7359L57.7358 72.7357V72.652C57.7359 71.9693 58.0072 71.3145 58.4901 70.8317C58.973 70.349 59.628 70.0777 60.3109 70.0777L61.5196 69.1611L63.7743 70.0778L64.3518 70.0779L64.3517 72.7359Z" fill="#2F2E41"/>
<path d="M86.4075 39.9473L71.1394 41.542L67.3878 45.2478L61.4203 47.1958C60.669 47.441 60.0105 47.9098 59.5329 48.5393C59.0553 49.1689 58.7814 49.9292 58.7478 50.7186C58.5925 54.3572 58.2856 60.3981 57.9615 60.3348C57.4981 60.2443 58.4244 62.5081 59.0731 62.3766C59.7219 62.2452 60.3966 63.7212 59.948 63.9836C59.4995 64.2461 60.2467 66.4912 60.2467 66.4912L64.9201 65.7384C65.5051 61.3271 67.6417 56.6774 65.1236 53.4317C69.3882 52.0482 73.1451 50.8913 75.9076 50.1783L77.4017 49.5585L80.5036 82.5088L84.8904 82.5808C86.1009 76.3557 86.709 70.7529 85.7629 66.756C85.7629 66.756 85.8988 54.7489 86.4176 54.8802C86.9364 55.0115 86.4966 53.4473 86.4966 53.4473C86.4966 53.4473 86.0422 52.1151 86.6005 51.5624C87.1587 51.0098 86.8101 47.7593 86.8101 47.7593C87.7325 44.6831 87.4549 42.1432 86.4075 39.9473Z" fill="#2F2E41"/>
<path d="M88.2125 33.224C88.3637 32.546 88.5149 31.868 88.6661 31.1899C89.0908 29.2912 89.5149 27.3933 89.9382 25.4963C90.4941 23.0107 91.0523 20.4386 90.5742 17.9374C90.5025 17.5613 90.4022 17.1911 90.274 16.8303C89.5579 14.7827 87.9767 12.9886 85.8798 12.6108L85.5373 11.3346L80.8584 10.7588L79.9729 11.9797C78.0668 11.8274 76.9353 13.7247 75.6205 15.2883L75.098 15.8107C74.7172 16.2868 74.6391 18.0755 74.4013 18.5967C73.344 20.9142 74.801 18.662 74.7497 21.2086C74.6966 23.8475 74.1775 26.4083 74.1243 29.047C74.1186 29.3302 73.5091 29.546 73.4043 30.0424C73.3477 30.3104 73.8199 30.8074 73.7483 31.1069C73.6872 31.3626 73.9923 32.3901 73.9268 32.6543C73.6231 33.8802 72.9352 34.3629 72.9051 34.9673C72.8913 35.2 72.8566 35.4309 72.8015 35.6573C72.7638 35.818 72.2364 35.6254 72.185 35.7886C72.0987 36.0628 72.4784 36.6941 72.3744 36.9685C72.173 37.4996 72.3084 38.4376 72.185 38.9229C71.6673 40.9604 71.8661 40.1518 70.7437 41.9297C73.6165 42.7979 74.8573 45.7057 77.8125 46.2291C77.9457 45.7987 78.0785 45.3672 78.2109 44.9345C78.6026 44.9597 78.9967 44.9832 79.3908 45.0048C79.4129 45.3804 79.4352 45.7562 79.4575 46.1296C82.4531 46.3227 85.4574 46.339 88.4549 46.1786C88.3545 45.8774 88.2742 45.5699 88.2147 45.2581C88.0502 44.3911 88.4039 43.4507 88.4416 42.5925C88.4683 41.9567 88.1659 41.4165 88.1747 40.7317C88.1769 40.605 88.8886 40.4984 88.8864 40.3693C88.8752 39.231 88.2281 37.7081 88.4416 36.5899C88.6639 35.4406 87.9591 34.3669 88.2125 33.2244L88.2125 33.224Z" fill="#3F3D56"/>
<path d="M66.3268 5.7295C65.9302 5.72996 65.5498 5.8877 65.2693 6.16813C64.9888 6.44856 64.831 6.82878 64.8306 7.22536V16.2388C64.831 16.6354 64.9888 17.0156 65.2693 17.296C65.5498 17.5765 65.9302 17.7342 66.3268 17.7347H69.1161C69.5128 17.7342 69.8932 17.5765 70.1737 17.296C70.4542 17.0156 70.612 16.6354 70.6124 16.2388C71.057 11.7098 70.8936 9.26557 70.6124 7.22537C70.612 6.82878 70.4542 6.44856 70.1737 6.16813C69.8932 5.8877 69.5128 5.72995 69.1161 5.72949L66.3268 5.7295Z" fill="#BC6752"/>
<path d="M65.9782 5.72949C65.5815 5.72996 65.2012 5.8877 64.9207 6.16812C64.6402 6.44854 64.4824 6.82875 64.4819 7.22533C64.3217 10.7684 64.2103 14.1474 64.4819 16.2388C64.4824 16.6354 64.6402 17.0156 64.9207 17.296C65.2012 17.5765 65.5815 17.7342 65.9782 17.7347H68.7675C69.1642 17.7342 69.5445 17.5764 69.8251 17.296C70.1056 17.0156 70.2634 16.6354 70.2638 16.2388V7.22537C70.2634 6.82878 70.1056 6.44857 69.8251 6.16814C69.5445 5.88771 69.1642 5.72996 68.7675 5.7295L65.9782 5.72949Z" fill="#3F3D56"/>
<path d="M73.1587 18.8474C73.1587 18.8474 75.7969 18.7404 74.4541 19.8792C73.5803 20.6203 71.6127 25.7792 69.5684 26.4033C69.3277 26.4766 69.0744 26.4992 68.8245 26.4696C68.5747 26.44 68.3337 26.3588 68.1168 26.2312C67.9 26.1035 67.712 25.9323 67.5648 25.7283C67.4176 25.5242 67.3144 25.2919 67.2618 25.0459L65.4087 16.4111L67.8293 16.043L69.3045 22.8771L73.1587 18.8474Z" fill="#A0616A"/>
<path d="M66.753 17.0422C67.6986 17.0422 68.4651 16.2759 68.4651 15.3307C68.4651 14.3854 67.6986 13.6191 66.753 13.6191C65.8075 13.6191 65.041 14.3854 65.041 15.3307C65.041 16.2759 65.8075 17.0422 66.753 17.0422Z" fill="#A0616A"/>
<path d="M76.7377 14.1294C78.306 15.3069 78.7679 19.168 77.7824 20.8632C75.8985 24.1038 72.1845 26.5988 72.0261 26.2523C71.8092 25.7778 71.4312 26.415 71.4441 26.6236C71.4569 26.8321 70.7414 26.77 70.8248 26.9907C70.9081 27.2114 70.3435 27.2594 70.0983 27.3873C70.0983 27.3873 67.8539 27.4253 67.1459 26.4014C66.4378 25.3775 66.3429 23.9626 66.3429 23.9626L65.4639 22.9286L70.1243 20.2051L69.7402 22.0434L72.0651 19.3371L72.5571 18.2513L73.3421 17.8506L73.6022 17.0324L74.3259 16.7053L77.1885 13.373L76.7377 14.1294Z" fill="#3F3D56"/>
<path d="M89.6147 45.8483C89.8103 45.7193 89.9752 45.549 90.0979 45.3494C90.2205 45.1497 90.2979 44.9257 90.3246 44.6929C90.3512 44.4602 90.3265 44.2244 90.2522 44.0022C90.1778 43.7801 90.0556 43.5769 89.8942 43.407L90.2235 28.7656L87.3297 29.2157L87.5338 43.4169C87.2663 43.7069 87.1145 44.0848 87.1072 44.4792C87.0999 44.8736 87.2375 45.2569 87.494 45.5566C87.7505 45.8563 88.108 46.0515 88.4989 46.1053C88.8898 46.1591 89.2868 46.0676 89.6147 45.8483Z" fill="#A0616A"/>
<path d="M89.7408 16.2852C89.7408 16.2852 89.5488 16.4302 90.5332 17.9297C90.7284 18.2271 90.8607 19.4262 90.9533 20.9909C90.9835 21.5006 91.2738 21.8588 91.2963 22.4276C91.3154 22.9104 91.0678 23.5982 91.0825 24.0988C91.0903 24.3659 91.2895 24.5982 91.2963 24.8654C91.2991 24.9767 91.11 25.1236 91.1127 25.2346C91.1156 25.3542 91.1183 25.4735 91.121 25.5925C91.1887 28.5664 91.2032 31.2523 91.2704 31.207C91.4136 31.1103 91.0578 31.6102 91.2357 31.6937C91.4136 31.7772 91.0838 32.1914 91.1688 32.4061C91.2724 32.6676 91.1437 32.9562 91.0623 33.2188C90.8274 33.9769 90.7768 34.6279 90.5726 34.9881C90.815 35.1271 91.0043 35.3429 91.1106 35.6013C91.2169 35.8597 91.2341 36.1462 91.1596 36.4155L87.081 35.6783C86.5837 34.8819 86.6556 34.0461 86.9944 33.9004L86.8935 31.3089L85.7319 17.9014L89.1363 16.3819L89.7408 16.2852Z" fill="#3F3D56"/>
<path d="M64.427 8.04102C64.3684 8.04102 64.3208 8.0689 64.3208 8.1032V8.60066C64.3208 8.63496 64.3684 8.66284 64.427 8.66284C64.4855 8.66284 64.5331 8.63495 64.5331 8.60066V8.1032C64.5331 8.0689 64.4855 8.04102 64.427 8.04102Z" fill="#3F3D56"/>
<path d="M64.427 9.35938C64.3684 9.35938 64.3208 9.38726 64.3208 9.42156V10.3854C64.3208 10.4197 64.3684 10.4476 64.427 10.4476C64.4855 10.4476 64.5331 10.4197 64.5331 10.3854V9.42156C64.5331 9.38726 64.4855 9.35938 64.427 9.35938Z" fill="#3F3D56"/>
<path d="M70.3487 9.53418C70.3174 9.53775 70.2888 9.55339 70.269 9.57776C70.2492 9.60213 70.2396 9.63329 70.2425 9.66458V11.6859C70.2392 11.7016 70.2395 11.7179 70.2433 11.7336C70.2471 11.7492 70.2544 11.7638 70.2646 11.7763C70.2747 11.7888 70.2876 11.7989 70.3021 11.8058C70.3166 11.8127 70.3326 11.8163 70.3487 11.8163C70.3648 11.8163 70.3807 11.8127 70.3952 11.8058C70.4098 11.7989 70.4226 11.7888 70.4328 11.7763C70.4429 11.7638 70.4502 11.7492 70.454 11.7336C70.4578 11.7179 70.4581 11.7016 70.4548 11.6859V9.66458C70.4577 9.63329 70.4482 9.60213 70.4283 9.57776C70.4085 9.55339 70.3799 9.53775 70.3487 9.53418Z" fill="#3F3D56"/>
<path d="M64.2527 10.9014C64.1941 10.9014 64.1465 10.9293 64.1465 10.9635V11.9274C64.1465 11.9617 64.1941 11.9896 64.2527 11.9896C64.3112 11.9896 64.3588 11.9617 64.3588 11.9274V10.9635C64.3588 10.9293 64.3112 10.9014 64.2527 10.9014Z" fill="#3F3D56"/>
<path d="M82.8705 10.307C85.2854 10.307 87.243 8.34994 87.243 5.93574C87.243 3.52155 85.2854 1.56445 82.8705 1.56445C80.4557 1.56445 78.498 3.52155 78.498 5.93574C78.498 8.34994 80.4557 10.307 82.8705 10.307Z" fill="#A0616A"/>
<path d="M87.7526 7.94395C87.4112 8.6269 87.0863 9.05404 86.4961 9.43581C86.4661 9.34878 86.4419 9.25986 86.4236 9.16963C86.3608 9.31001 86.2995 9.45007 86.2352 9.59076C85.8618 9.79919 86.2648 9.47762 85.6536 9.71067L85.1395 8.82861C84.9986 8.40991 85.1982 7.95389 85.4519 7.59155C85.7059 7.23068 86.022 6.89984 86.1597 6.4803C86.2974 6.06076 86.1752 5.50495 85.7625 5.34879C85.3559 5.19284 84.9068 5.48869 84.4747 5.43729C83.9759 5.37849 83.6366 4.8568 83.6095 4.3549C83.5825 3.853 83.7873 3.3711 83.9877 2.91181C83.3837 3.34454 81.5127 4.11981 80.4941 4.15685C80.4667 3.83923 80.3198 3.54381 80.0832 3.33008C80.1246 3.61925 80.0542 3.91334 79.8863 4.15238C78.8891 4.10126 78.7016 5.54928 78.1867 5.02494C78.3475 4.94408 77.7551 3.14454 77.9158 3.06368C77.7922 2.72489 77.6687 2.38707 77.5454 2.05025C77.7745 2.10798 78.0055 2.16687 78.2361 2.22429C78.2504 2.10113 78.2879 1.98178 78.3465 1.87249C78.5108 1.7788 78.6858 1.70497 78.8676 1.65256C78.9261 1.63692 78.9862 1.62096 79.0469 1.60796C79.1367 1.58795 79.2276 1.57314 79.3192 1.56358C79.1866 1.48672 79.0528 1.41166 78.9199 1.33333C78.9041 1.32434 78.8897 1.31503 78.8738 1.30605C79.0605 1.17776 79.2555 1.06205 79.4576 0.959685C80.3097 0.514078 81.194 0.0600238 82.1544 0.00448095C82.7784 -0.035237 83.3969 0.142764 83.9044 0.508112C84.3419 0.82228 84.8717 0.98162 85.41 0.960921C85.6719 0.958927 85.9307 1.01656 86.167 1.12946C86.0587 1.23841 85.9404 1.33684 85.8135 1.42341C86.0906 1.43061 86.3663 1.43813 86.6437 1.44682C86.9544 1.72951 87.2165 2.06141 87.4193 2.4292C88.3913 4.08929 88.6134 6.22415 87.7526 7.94395Z" fill="#2F2E41"/>
<path d="M73.7108 76.0452C73.6777 75.827 73.5929 75.6198 73.4635 75.441C73.3341 75.2621 73.1638 75.1168 72.9669 75.017C71.1184 74.0712 69.1811 73.3101 67.1831 72.7448L65.3134 75.209L66.6953 72.6089C61.5806 71.2371 56.2047 71.1609 51.0532 72.387L51.7722 74.369L50.5976 72.5004C48.278 73.0835 46.0321 73.9278 43.9028 75.017C43.7068 75.1173 43.5372 75.2626 43.408 75.4409C43.2787 75.6192 43.1935 75.8255 43.1592 76.043C43.1248 76.2606 43.1424 76.4831 43.2105 76.6925C43.2785 76.9019 43.3951 77.0923 43.5507 77.2481C44.3591 77.2978 44.8929 78.0486 45.4257 79.1226C45.6298 79.324 45.8912 79.4574 46.1742 79.5044C46.4571 79.5515 46.7476 79.51 47.0061 79.3856C50.5767 77.6878 54.4809 76.8069 58.4349 76.8069C62.3888 76.8069 66.293 77.6878 69.8637 79.3856C70.122 79.5101 70.4126 79.5516 70.6955 79.5045C70.9784 79.4574 71.2398 79.324 71.4439 79.1226C71.7642 78.2543 72.4243 77.7409 73.319 77.2481C73.4754 77.0933 73.5925 76.9034 73.6607 76.6942C73.7289 76.4849 73.7461 76.2625 73.7108 76.0452Z" fill="#BC6752"/>
<path d="M63.3813 84.5318C62.9719 84.4676 62.56 84.4115 62.1456 84.3635L60.5213 86.9474L61.7316 84.3194C59.7649 84.1185 57.784 84.0977 55.8136 84.2572L57.0525 86.9474L55.3848 84.2944C54.7483 84.3547 54.1164 84.4339 53.4893 84.5318C53.2745 84.5636 53.0731 84.6553 52.9081 84.7964C52.7432 84.9374 52.6214 85.1222 52.5567 85.3294C52.4878 85.5383 52.4784 85.7622 52.5295 85.9762C52.5806 86.1901 52.6902 86.3857 52.8461 86.5409C53.5168 87.1978 54.2563 88.11 55.4716 89.1658C55.5902 89.2859 55.7334 89.3789 55.8914 89.4383C56.0495 89.4976 56.2185 89.522 56.3869 89.5098C57.0603 89.4599 57.7496 89.4346 58.4353 89.4346C59.121 89.4346 59.8102 89.4599 60.4837 89.5098C60.6521 89.5218 60.821 89.4973 60.979 89.4379C61.137 89.3785 61.2803 89.2857 61.399 89.1658C62.654 88.0948 63.2882 87.1127 64.0246 86.5409C64.1804 86.3857 64.29 86.1901 64.3411 85.9762C64.3922 85.7622 64.3828 85.5383 64.3139 85.3294C64.2492 85.1222 64.1275 84.9374 63.9625 84.7963C63.7975 84.6552 63.5961 84.5636 63.3813 84.5318Z" fill="#BC6752"/>
</g>
<defs>
<clipPath id="clip0_46_39355">
<rect width="125" height="90" fill="white"/>
</clipPath>
</defs>
</svg>
