<svg width="38" height="38" viewBox="0 0 38 38" fill="none" xmlns="http://www.w3.org/2000/svg">
<path d="M19 0C15.2422 0 11.5687 1.11433 8.44417 3.20208C5.31964 5.28982 2.88436 8.25722 1.4463 11.729C0.0082324 15.2008 -0.368031 19.0211 0.365088 22.7067C1.09821 26.3924 2.90778 29.7778 5.56498 32.435C8.22218 35.0922 11.6077 36.9018 15.2933 37.6349C18.9789 38.368 22.7992 37.9918 26.271 36.5537C29.7428 35.1156 32.7102 32.6804 34.7979 29.5558C36.8857 26.4313 38 22.7578 38 19C37.9943 13.9626 35.9907 9.13322 32.4287 5.57127C28.8668 2.00931 24.0374 0.00570142 19 0ZM19 35.0769C15.8203 35.0769 12.712 34.134 10.0681 32.3675C7.42431 30.6009 5.36369 28.09 4.14687 25.1524C2.93004 22.2147 2.61167 18.9822 3.232 15.8635C3.85233 12.7449 5.38351 9.88029 7.63191 7.6319C9.8803 5.3835 12.7449 3.85232 15.8636 3.23199C18.9822 2.61166 22.2147 2.93004 25.1524 4.14686C28.09 5.36368 30.6009 7.4243 32.3675 10.0681C34.134 12.712 35.0769 15.8203 35.0769 19C35.0721 23.2624 33.3768 27.3488 30.3628 30.3628C27.3488 33.3767 23.2624 35.0721 19 35.0769ZM27.7692 19C27.7692 19.3876 27.6152 19.7594 27.3411 20.0334C27.0671 20.3075 26.6953 20.4615 26.3077 20.4615H15.2207L18.9266 24.1673C19.0623 24.303 19.17 24.4641 19.2434 24.6415C19.3168 24.8188 19.3546 25.0088 19.3546 25.2008C19.3546 25.3927 19.3168 25.5828 19.2434 25.7601C19.1699 25.9374 19.0623 26.0985 18.9265 26.2342C18.7908 26.3699 18.6297 26.4776 18.4524 26.551C18.2751 26.6245 18.085 26.6623 17.8931 26.6623C17.7011 26.6623 17.5111 26.6245 17.3338 26.551C17.1564 26.4776 16.9953 26.3699 16.8596 26.2342L10.6589 20.0334C10.5231 19.8977 10.4155 19.7366 10.342 19.5593C10.2686 19.382 10.2308 19.1919 10.2308 19C10.2308 18.8081 10.2686 18.618 10.342 18.4407C10.4155 18.2634 10.5231 18.1023 10.6589 17.9666L16.8596 11.7657C17.1337 11.4916 17.5055 11.3376 17.8931 11.3376C18.2807 11.3376 18.6525 11.4916 18.9266 11.7657C19.2007 12.0398 19.3547 12.4116 19.3547 12.7992C19.3547 13.1868 19.2007 13.5586 18.9266 13.8327L15.2207 17.5385H26.3077C26.6953 17.5385 27.0671 17.6925 27.3411 17.9666C27.6152 18.2406 27.7692 18.6124 27.7692 19Z" fill="white"/>
</svg>
