<svg width="38" height="38" viewBox="0 0 38 38" fill="none" xmlns="http://www.w3.org/2000/svg">
<path d="M19 0C22.7578 0 26.4313 1.11433 29.5558 3.20208C32.6804 5.28982 35.1156 8.25722 36.5537 11.729C37.9918 15.2008 38.368 19.0211 37.6349 22.7067C36.9018 26.3924 35.0922 29.7778 32.435 32.435C29.7778 35.0922 26.3923 36.9018 22.7067 37.6349C19.0211 38.368 15.2008 37.9918 11.729 36.5537C8.25722 35.1156 5.28982 32.6804 3.20208 29.5558C1.11433 26.4313 0 22.7578 0 19C0.00569916 13.9626 2.00931 9.13322 5.57127 5.57127C9.13322 2.00931 13.9626 0.00570142 19 0ZM19 35.0769C22.1797 35.0769 25.288 34.134 27.9319 32.3675C30.5757 30.6009 32.6363 28.09 33.8531 25.1524C35.07 22.2147 35.3883 18.9822 34.768 15.8635C34.1477 12.7449 32.6165 9.88029 30.3681 7.6319C28.1197 5.3835 25.2551 3.85232 22.1364 3.23199C19.0178 2.61166 15.7853 2.93004 12.8476 4.14686C9.90995 5.36368 7.39908 7.4243 5.63252 10.0681C3.86597 12.712 2.92308 15.8203 2.92308 19C2.92789 23.2624 4.62325 27.3488 7.63721 30.3628C10.6512 33.3767 14.7376 35.0721 19 35.0769ZM10.2308 19C10.2308 19.3876 10.3848 19.7594 10.6589 20.0334C10.9329 20.3075 11.3047 20.4615 11.6923 20.4615H22.7793L19.0734 24.1673C18.9377 24.303 18.83 24.4641 18.7566 24.6415C18.6832 24.8188 18.6454 25.0088 18.6454 25.2008C18.6454 25.3927 18.6832 25.5828 18.7566 25.7601C18.8301 25.9374 18.9377 26.0985 19.0735 26.2342C19.2092 26.3699 19.3703 26.4776 19.5476 26.551C19.7249 26.6245 19.915 26.6623 20.1069 26.6623C20.2989 26.6623 20.4889 26.6245 20.6662 26.551C20.8436 26.4776 21.0047 26.3699 21.1404 26.2342L27.3411 20.0334C27.4769 19.8977 27.5845 19.7366 27.658 19.5593C27.7314 19.382 27.7692 19.1919 27.7692 19C27.7692 18.8081 27.7314 18.618 27.658 18.4407C27.5845 18.2634 27.4769 18.1023 27.3411 17.9666L21.1404 11.7657C20.8663 11.4916 20.4945 11.3376 20.1069 11.3376C19.7193 11.3376 19.3475 11.4916 19.0734 11.7657C18.7993 12.0398 18.6453 12.4116 18.6453 12.7992C18.6453 13.1868 18.7993 13.5586 19.0734 13.8327L22.7793 17.5385H11.6923C11.3047 17.5385 10.9329 17.6925 10.6589 17.9666C10.3848 18.2406 10.2308 18.6124 10.2308 19Z" fill="white"/>
</svg>
