<svg width="275" height="70" viewBox="0 0 275 70" fill="none" xmlns="http://www.w3.org/2000/svg">
<path d="M14.1385 45.6632C14.5292 45.6632 14.92 45.6105 15.2543 45.4566C18.4323 44.5695 22.5003 39.5261 23.7854 36.7147C24.2846 35.7263 25.0661 34.9971 26.1255 34.4786C27.632 33.8021 29.1385 33.0729 30.6406 32.2911C32.0907 31.566 33.5408 30.8368 34.9908 30.1077C35.2166 30.0023 35.438 29.9011 35.6594 29.7957C35.8852 29.6904 36.1066 29.5365 36.2759 29.3785C36.3845 29.3258 36.4409 29.1719 36.4409 29.0139C36.4409 28.86 36.3845 28.7546 36.328 28.5967C36.2195 28.4427 36.0502 28.3374 35.8852 28.3374C35.7723 28.3374 35.7159 28.3374 35.6594 28.3901C35.4945 28.4427 35.2687 28.548 35.1037 28.5967C34.8823 28.6493 34.6565 28.7546 34.4916 28.8073L27.0719 32.4491C26.9069 32.5544 26.6855 32.6557 26.5162 32.761C26.2948 32.919 26.069 32.9676 25.7912 32.9676H25.5697C25.4569 32.7084 25.4569 32.4491 25.5133 32.1898C25.5697 31.9792 25.6262 31.7199 25.6262 31.4607C25.6783 29.0139 24.1761 27.4543 21.5538 27.2963C20.6074 27.2963 19.713 27.2963 18.823 27.507C17.9851 27.6609 17.2036 27.8189 16.3657 27.9728C15.5321 28.1308 14.6942 28.3374 13.8607 28.4954C13.4135 28.548 12.9663 28.6493 12.5191 28.702C12.0763 28.8073 11.6291 28.9126 11.1819 28.9612C11.0691 28.9612 10.9605 28.9612 10.9041 28.9612C10.7912 29.0139 10.6783 29.0139 10.5698 29.0139C8.61609 29.0139 7.44822 28.0255 7.05748 25.996C6.77529 24.6956 6.88816 23.3953 7.2789 21.9896C9.23259 15.5932 13.1877 10.5984 19.1573 7.00523C20.8852 5.96819 23.2818 5.08104 25.344 5.08104C27.7448 5.08104 29.8071 6.0168 29.8071 8.51622C29.8071 11.3762 26.3469 17.2581 23.1168 17.7766C23.0603 17.8293 23.0039 17.8293 22.9475 17.8293C22.891 17.8293 22.7781 17.882 22.726 17.9346C22.4438 18.1412 22.3353 18.3478 22.3917 18.6111C22.4438 19.0243 22.8346 19.077 23.2253 19.077C24.9532 19.077 26.4033 17.724 27.4626 16.6302C29.082 14.6048 30.2542 12.4699 30.9749 10.1285C31.2007 9.50465 31.2571 8.82814 31.2007 8.09898C31.0314 5.1337 28.3006 3.72803 25.2875 3.72803C22.6132 3.72803 19.9344 4.82178 17.7072 6.22745C12.3541 9.55731 7.39178 15.6945 5.94171 21.5237C5.4381 23.3426 5.27312 25.1129 5.77239 26.9317C6.44099 29.2246 8.22535 30.3143 10.6783 30.3143C11.8505 30.3143 13.0792 30.055 14.1949 29.8484C15.0285 29.6904 15.9229 29.4838 16.8129 29.3258C17.6508 29.1719 18.5408 28.9612 19.3787 28.8073C19.9344 28.702 20.5509 28.6493 21.1631 28.6493C23.3382 28.702 24.3411 29.7431 24.1197 31.8779C23.9503 33.0729 23.5596 34.268 22.4438 34.8959C21.7188 35.2564 20.9938 35.6736 20.3252 36.0382C19.6001 36.4555 18.9315 36.8727 18.2065 37.2373C16.1443 38.4323 13.5785 40.4092 12.2977 42.4387C11.7941 43.3218 11.8505 44.1563 12.5756 44.9867C12.9663 45.4566 13.522 45.6632 14.1385 45.6632ZM14.247 44.3102C14.0821 44.3102 13.8606 44.2089 13.6913 44.0509C13.4699 43.7917 13.4135 43.5324 13.4699 43.2691C14.3599 41.033 19.1573 38.2257 21.5538 36.974C20.4945 39.7327 18.0415 42.4387 15.645 43.739C15.2543 43.9456 14.92 44.1036 14.5292 44.2575C14.4728 44.3102 14.3599 44.3102 14.247 44.3102Z" fill="white"/>
<path d="M35.6452 35.2561C36.3702 35.2561 37.321 34.531 37.8203 34.1138C39.2139 32.9187 40.4426 31.667 41.7233 30.2613C41.8927 30.1074 42.1141 29.9008 42.2834 29.6902C42.4484 29.4836 42.7262 29.3256 43.117 29.1716C42.7262 30.5773 42.3919 31.9263 42.3919 33.3319C42.3919 34.3204 42.8391 34.8429 43.7856 34.8429C44.0113 34.8429 44.1763 34.8429 44.2892 34.7903C46.6293 34.4257 50.5887 30.9378 52.2081 29.4309C52.2646 29.3782 52.3731 29.2729 52.4295 29.2243C52.486 29.1716 52.486 29.119 52.5424 29.0663C52.651 28.7017 52.5989 28.4425 52.3167 28.2845C52.2081 28.1832 52.0952 28.1306 51.9303 28.1306C51.8738 28.1306 51.8174 28.1832 51.6481 28.2359C51.4831 28.3371 51.3138 28.4425 51.2052 28.5478C51.0359 28.7017 50.8666 28.8071 50.7016 28.961C50.198 29.3256 49.7552 29.6902 49.3644 30.0547C48.9172 30.4193 48.4701 30.8366 47.9708 31.2012C47.3022 31.7723 46.5772 32.1896 45.9042 32.6028C45.405 32.8661 44.9013 33.0727 44.4021 33.2793C44.3456 33.3319 44.2892 33.3319 44.1763 33.3319C43.9549 33.3319 43.842 33.178 43.842 32.8661C43.842 30.6259 45.5699 26.8302 46.6293 24.8534C46.7421 24.5941 46.855 24.3834 47.02 24.1242C47.1329 23.9176 47.2458 23.7069 47.3543 23.4477C47.5236 22.9778 47.4672 22.6132 47.0764 22.4066C46.9115 22.3539 46.7986 22.3013 46.7421 22.3013C46.5772 22.3013 46.3514 22.4066 46.0735 22.6659C45.9042 22.8238 45.7957 23.0304 45.6828 23.1884C45.5178 23.395 45.405 23.6057 45.2356 23.7596C44.9013 24.1768 44.567 24.5941 44.2892 25.0073C43.9549 25.4245 43.6206 25.8418 43.2863 26.2064C43.0605 26.4656 42.8956 26.6196 42.7827 26.6196C42.7262 26.6196 42.5613 26.5183 42.2834 26.3603C41.7233 25.9431 41.1676 25.7365 40.6076 25.7365C39.9954 25.7365 39.3833 25.9431 38.7668 26.413C38.3804 26.6722 38.0982 26.8829 37.9332 27.0895C36.2574 28.6491 34.4209 31.7197 34.4209 34.0084C34.4773 34.8429 34.9202 35.2561 35.6452 35.2561ZM36.1488 33.3846C36.1488 33.3319 36.1488 33.3319 36.0924 33.3319L36.0359 33.2793C36.4831 31.0432 37.5989 29.1716 39.3268 27.766C39.6047 27.5067 40.2733 27.1421 40.664 27.1421C40.9419 27.1421 41.1676 27.2475 41.4455 27.4014C41.7233 27.5594 41.7798 27.8186 41.6669 28.1306C41.6105 28.2845 41.5019 28.3372 41.4455 28.3898C39.939 30.1074 38.4325 31.825 36.6481 33.2307C36.5396 33.3319 36.3702 33.3846 36.1488 33.3846Z" fill="white"/>
<path d="M51.253 39.2139C51.4744 39.2139 51.6437 39.1612 51.8087 39.0559C52.143 38.7966 52.4208 38.5373 52.5901 38.1728C52.7595 37.8608 52.9244 37.5489 53.0938 37.237C54.8217 33.9557 56.9403 30.8365 59.8405 28.3898C59.949 28.2845 60.0619 28.2358 60.2312 28.2358C60.3962 28.2358 60.5655 28.3898 60.6176 28.649C60.6741 29.1716 60.7869 29.6901 60.8434 30.16C60.8998 30.6785 60.9563 31.2011 61.0084 31.7196C61.0648 32.3435 61.2341 32.9673 61.6249 33.6438C62.0677 34.373 62.6842 34.7376 63.4092 34.7376C63.4657 34.7376 63.5742 34.7376 63.6871 34.6849C63.7435 34.6849 63.8521 34.6849 63.9085 34.6849C64.7464 34.531 65.4714 34.1664 66.14 33.5912C66.7522 33.0726 70.0431 30.314 70.6552 29.7428C70.881 29.5362 71.046 29.2729 71.1588 29.0136C71.2717 28.7544 71.2153 28.4951 70.9374 28.2845C70.8245 28.1832 70.7117 28.1305 70.5467 28.1305C70.3774 28.1305 70.2645 28.1832 70.1559 28.2845C70.0431 28.3371 69.9302 28.4951 69.7652 28.649C69.5959 28.807 69.2052 29.1716 68.593 29.6375C68.0937 30.0547 67.5901 30.472 67.1429 30.8892C66.6437 31.3551 66.1965 31.7723 65.6929 32.1895C65.0807 32.6554 64.525 33.0726 63.8521 33.2792C63.8 33.2792 63.7435 33.2792 63.7435 33.2792C63.6871 33.3319 63.6306 33.3319 63.5742 33.3319C63.2399 33.3319 63.0185 33.178 62.9056 32.9187C62.6277 32.4488 62.4584 31.9262 62.402 31.3024C62.3499 30.8892 62.2934 30.472 62.2934 30.0547C62.237 29.6375 62.1806 29.2243 62.1241 28.7544C61.9591 27.8713 61.7898 26.6195 60.5091 26.6195C58.334 26.6195 54.0402 32.6027 53.0938 34.373C52.9244 34.0084 52.868 33.6965 53.0373 33.3846C53.1459 33.0726 53.2587 32.7607 53.3716 32.4488C53.9273 31.1485 54.4874 29.7954 55.0431 28.4424C55.5467 27.1421 56.1024 25.7891 56.6625 24.4887L56.9968 23.8649C57.1618 23.5003 57.1053 23.1884 56.7146 22.9777C56.5496 22.9291 56.4367 22.8765 56.3803 22.8765C55.7681 22.8765 55.2689 24.2781 54.9302 24.748C54.4309 26.0483 53.8709 27.3487 53.3716 28.649C52.868 29.9494 52.3123 31.2538 51.8087 32.5541C51.1965 34.2677 50.6408 35.9853 50.415 37.8082C50.415 38.1201 50.415 38.3267 50.4715 38.4847C50.5279 38.9505 50.8058 39.2139 51.253 39.2139Z" fill="white"/>
<path d="M79.2888 47.3808C79.4017 47.3808 79.5146 47.3808 79.571 47.3281C79.9574 47.2228 80.1267 46.9109 80.0138 46.3397C80.0138 46.287 79.9574 46.1857 79.9053 46.0278C79.5146 44.6221 79.3452 43.3217 79.2888 42.0214C79.1238 39.1614 79.4017 36.4554 79.8489 33.6967C80.5739 29.0139 83.0269 19.8061 85.8141 15.7471C86.8734 14.2401 87.7114 12.5752 88.38 10.8576C88.6014 10.3877 88.8271 9.97452 88.8271 9.39929C88.6578 8.82811 88.6014 8.56885 87.9892 8.56885C87.7678 8.56885 87.5985 8.62151 87.4292 8.77544C86.817 9.14003 86.5391 9.71121 86.2613 10.2864C85.202 11.8987 84.364 13.6649 83.7519 15.5405C82.914 17.7766 81.7418 19.7008 80.4046 21.5764L78.2295 24.5416C78.0645 24.8009 77.8952 25.1128 77.5044 25.2708C77.1137 24.489 76.6144 24.0717 76.1108 24.0717C75.1079 24.0717 73.6578 25.4774 73.0457 26.2066C71.9864 27.7662 69.5898 31.7726 69.5898 33.6441C69.6419 34.3206 70.202 34.5312 70.8706 34.5312C71.3178 34.3732 71.5956 34.1667 71.9864 33.9074C74.6607 31.408 76.9487 28.6493 79.1238 25.7367C79.2888 25.4774 79.5146 25.2182 79.6795 24.9548C79.8489 24.6956 80.0703 24.5416 80.4046 24.3837V24.331C80.5739 24.7482 80.461 25.1128 80.296 25.4774C79.9053 26.8831 79.571 28.2361 79.1803 29.6377C78.2295 33.7494 77.6738 37.8084 77.8387 41.9687C77.8387 42.9572 78.173 47.3808 79.2888 47.3808ZM71.817 32.2911C71.6521 31.9265 71.5956 31.6146 71.7606 31.3026C72.3771 29.8484 73.0457 28.4954 73.9921 27.0897C74.0486 26.9317 74.1615 26.8831 74.2179 26.8304C74.9429 25.9433 75.7201 25.2708 76.8358 25.2708C77.1137 25.2708 77.3395 25.2708 77.5044 25.3194C77.448 25.5827 77.3395 25.842 77.1701 26.0486C77.0052 26.2592 76.7794 26.4658 76.6144 26.7251C75.1079 28.6493 73.545 30.4195 71.817 32.2911Z" fill="white"/>
<path d="M95.286 50.0338C97.5696 50.0338 98.9676 43.3741 99.3019 41.3973C99.5233 40.2022 100.079 39.0558 100.917 38.0674C103.092 35.3087 105.324 32.6027 107.72 30.0547C108.111 29.5888 108.502 29.1716 108.836 28.7017C109.001 28.4424 108.949 28.2358 108.667 27.9725C108.558 27.8712 108.445 27.8186 108.276 27.8186C108.167 27.8186 107.998 27.8712 107.833 27.9725C107.607 28.1305 107.386 28.3371 107.216 28.5477C106.049 29.7428 104.989 30.9904 103.93 32.1895C102.871 33.4372 101.811 34.6849 100.752 35.9326C100.583 35.884 100.47 35.8313 100.361 35.8313L100.696 32.8134C100.86 31.513 101.086 30.16 101.251 28.807C101.421 27.5066 101.586 26.1536 101.755 24.8533C101.92 23.9661 101.755 23.5003 101.251 23.3949C101.195 23.3949 101.195 23.3949 101.138 23.3423C101.086 23.3423 101.086 23.3423 101.03 23.3423C100.752 23.3423 100.583 23.4476 100.413 23.6056C100.248 23.7595 100.079 23.9661 99.914 24.1241C99.4104 24.6953 98.9111 25.3191 98.4075 25.8944C97.9082 26.5182 97.3482 27.1421 96.8446 27.7132C95.6767 29.1189 94.4481 30.3666 93.0544 31.355C92.7766 31.513 92.4987 31.7196 92.2165 31.8776C91.9387 32.0315 91.6608 32.2422 91.3829 32.3961C91.1572 32.5014 90.9922 32.5541 90.8229 32.5541C90.4321 32.5541 90.2672 32.2908 90.3236 31.8249C90.3236 31.2537 90.3236 30.7312 90.4886 30.16C90.8793 28.5477 91.2136 27.0367 92.2729 25.7364C92.5551 25.3718 92.4423 25.0072 92.1644 24.8533C91.9387 24.8006 91.8301 24.748 91.7737 24.748C91.5479 24.748 91.3265 24.8533 91.1572 25.0072C89.5421 26.8301 88.8735 29.5888 88.8735 31.8776C88.8735 33.1253 89.2643 34.0084 90.7708 34.0084C91.2136 33.9557 91.6608 33.8544 92.108 33.5911C94.5609 32.0842 96.5103 30.2613 98.3511 28.1305L99.5233 26.8301C99.6362 26.7248 99.7447 26.7248 99.8576 26.7775C99.9705 26.7775 100.027 26.8301 100.027 26.9841C100.027 27.2474 100.027 27.4013 99.9705 27.5066L99.4669 31.2011C99.3019 32.3961 99.1326 33.5425 98.9676 34.6849C98.7983 35.8313 98.6854 36.9737 98.5204 38.1201C98.3511 38.9019 98.1297 39.4204 97.7389 39.9916C96.176 42.2277 94.7823 44.4152 93.8923 46.9106C93.558 47.6397 93.6145 48.4216 94.1138 49.252C94.3916 49.7746 94.7823 50.0338 95.286 50.0338ZM95.5074 48.057C95.4509 48.057 95.3988 48.057 95.3424 48.0043C95.0602 47.8504 95.1166 47.4858 95.286 47.2225L95.9546 45.6629C96.2324 45.0917 96.5103 44.5691 96.736 44.0506C96.9575 44.4152 96.9575 44.8325 96.7925 45.2983L95.9546 47.5385C95.8981 47.6397 95.8417 47.7451 95.7852 47.899C95.7331 48.0043 95.6767 48.057 95.5074 48.057Z" fill="white"/>
<path d="M138.534 40.7208C142.381 40.7208 148.181 37.6502 150.916 35.3615C153.087 33.6439 154.984 31.667 156.825 29.6375C156.881 29.5362 156.99 29.4309 157.046 29.3256C157.103 29.2729 157.216 29.1716 157.272 29.0663C157.437 28.7544 157.437 28.4951 157.159 28.2845C157.046 28.1832 156.881 28.1306 156.712 28.1306C156.604 28.1306 156.491 28.1832 156.321 28.2359C156.156 28.3898 155.931 28.5964 155.766 28.7544C155.596 28.961 155.375 29.1716 155.206 29.3256C151.303 33.6439 147.235 37.0264 141.491 38.8493C140.431 39.2139 139.485 39.3678 138.647 39.3678C136.25 39.3152 134.41 38.4847 133.294 36.4552C132.235 34.6323 132.013 32.7608 132.235 30.8366C133.294 22.4593 137.253 13.9766 145.337 9.86898C146.397 9.39907 147.399 9.03449 148.407 8.77523C148.793 8.72257 149.075 8.6699 149.353 8.6699C150.747 8.6699 151.472 9.45173 151.585 11.0113C151.693 11.6878 151.637 12.417 151.359 13.1988C150.525 16.1115 148.294 19.0767 146.34 21.4182C146.062 21.6774 146.006 21.8881 146.119 22.1473C146.175 22.2527 146.34 22.3013 146.509 22.3013C146.9 22.3013 147.235 22.042 147.456 21.6774C149.687 19.0241 151.975 16.2168 152.809 12.8869C153.087 11.8985 153.087 11.0113 152.865 10.1809C152.418 8.09872 151.25 7.31689 149.019 7.31689C144.057 7.83946 138.703 12.2104 136.138 16.1115C133.572 19.7532 130.784 26.9841 130.784 31.4078C130.728 33.9558 131.175 35.9853 132.456 37.8082C133.797 39.8377 136.081 40.7208 138.534 40.7208Z" fill="white"/>
<path d="M156.588 35.2561C157.313 35.2561 158.264 34.531 158.763 34.1138C160.157 32.9187 161.385 31.667 162.666 30.2613C162.836 30.1074 163.057 29.9008 163.226 29.6902C163.391 29.4836 163.669 29.3256 164.06 29.1716C163.669 30.5773 163.335 31.9263 163.335 33.3319C163.335 34.3204 163.782 34.8429 164.728 34.8429C164.954 34.8429 165.119 34.8429 165.232 34.7903C167.572 34.4257 171.532 30.9378 173.151 29.4309C173.207 29.3782 173.316 29.2729 173.372 29.2243C173.429 29.1716 173.429 29.119 173.485 29.0663C173.594 28.7017 173.542 28.4425 173.26 28.2845C173.151 28.1832 173.038 28.1306 172.873 28.1306C172.817 28.1306 172.76 28.1832 172.591 28.2359C172.426 28.3371 172.257 28.4425 172.148 28.5478C171.979 28.7017 171.809 28.8071 171.644 28.961C171.141 29.3256 170.698 29.6902 170.307 30.0547C169.86 30.4193 169.413 30.8366 168.914 31.2012C168.245 31.7723 167.52 32.1896 166.847 32.6028C166.348 32.8661 165.844 33.0727 165.345 33.2793C165.288 33.3319 165.232 33.3319 165.119 33.3319C164.898 33.3319 164.785 33.178 164.785 32.8661C164.785 30.6259 166.513 26.8302 167.572 24.8534C167.685 24.5941 167.798 24.3834 167.963 24.1242C168.076 23.9176 168.189 23.7069 168.297 23.4477C168.466 22.9778 168.41 22.6132 168.019 22.4066C167.854 22.3539 167.741 22.3013 167.685 22.3013C167.52 22.3013 167.294 22.4066 167.016 22.6659C166.847 22.8238 166.739 23.0304 166.626 23.1884C166.461 23.395 166.348 23.6057 166.179 23.7596C165.844 24.1768 165.51 24.5941 165.232 25.0073C164.898 25.4245 164.563 25.8418 164.229 26.2064C164.003 26.4656 163.838 26.6196 163.726 26.6196C163.669 26.6196 163.504 26.5183 163.226 26.3603C162.666 25.9431 162.11 25.7365 161.55 25.7365C160.938 25.7365 160.326 25.9431 159.71 26.413C159.323 26.6722 159.041 26.8829 158.876 27.0895C157.2 28.6491 155.364 31.7197 155.364 34.0084C155.42 34.8429 155.863 35.2561 156.588 35.2561ZM157.092 33.3846C157.092 33.3319 157.092 33.3319 157.035 33.3319L156.979 33.2793C157.426 31.0432 158.542 29.1716 160.27 27.766C160.548 27.5067 161.216 27.1421 161.607 27.1421C161.885 27.1421 162.11 27.2475 162.388 27.4014C162.666 27.5594 162.723 27.8186 162.61 28.1306C162.553 28.2845 162.445 28.3372 162.388 28.3898C160.882 30.1074 159.375 31.825 157.591 33.2307C157.482 33.3319 157.313 33.3846 157.092 33.3846Z" fill="white"/>
<path d="M172.304 40.6156C172.642 40.6156 172.92 40.4617 173.085 40.2024C173.476 39.6272 173.81 39.1614 174.088 38.5861C174.592 37.703 175.039 36.8726 175.486 36.0381C175.872 35.2076 176.32 34.3732 176.767 33.5427C177.435 32.3436 178.217 31.2013 179.276 30.2129C179.498 29.9495 179.723 29.6903 180.223 29.6903C180.392 29.9009 180.5 30.1075 180.613 30.3141C180.726 30.5248 180.891 30.7314 181.061 30.938C181.673 31.7198 182.398 32.0844 183.344 32.0844C184.907 32.0844 187.252 30.3668 188.311 29.3784C188.476 29.2244 188.645 29.0138 188.81 28.7019C188.923 28.4953 188.867 28.2846 188.645 28.078C188.476 27.9727 188.363 27.9241 188.198 27.9241C188.085 27.9241 188.029 27.9241 187.972 27.9727C187.694 28.1307 187.473 28.2846 187.252 28.4953C186.301 29.2244 184.351 30.7314 183.344 30.7314C182.845 30.7314 182.398 30.4195 182.007 29.7956C181.898 29.6376 181.786 29.431 181.729 29.1718C181.616 28.9611 181.508 28.7545 181.395 28.5965C181.117 28.1833 180.783 27.9727 180.335 27.9727C180.114 27.9727 179.888 28.0254 179.667 28.1307C177.939 29.1191 176.597 30.8894 175.707 32.5016L173.532 36.6093L173.476 36.5607H173.532C173.254 35.9854 173.419 35.4669 173.589 34.8957C174.036 33.3321 174.648 31.7198 175.373 30.1075C175.872 29.0664 176.376 28.0254 176.823 26.9843C176.988 26.5711 177.101 26.2065 177.101 25.8419C177.157 25.5826 177.045 25.4247 176.71 25.3193H176.545C176.32 25.3193 176.155 25.372 176.042 25.4773C175.872 25.6839 175.764 25.9432 175.595 26.2065C173.645 30.3668 172.082 33.802 171.357 38.4322C171.301 38.6914 171.301 38.9021 171.301 39.1087C171.357 39.3679 171.357 39.5745 171.357 39.7852C171.414 40.2024 171.635 40.4617 172.026 40.563C172.082 40.563 172.139 40.563 172.139 40.6156C172.195 40.6156 172.252 40.6156 172.304 40.6156Z" fill="white"/>
<path d="M189.415 40.0445C191.703 40.0445 194.881 34.5312 195.55 32.603L196.054 31.3026C196.219 30.7841 196.609 30.4722 197.226 30.3669C197.391 30.3142 197.612 30.3142 197.838 30.2616C198.059 30.2129 198.285 30.2129 198.45 30.1603L202.913 29.2731C203.191 29.2731 203.412 29.2245 203.582 29.1192C203.803 29.0139 203.916 28.8073 203.916 28.548C203.916 28.3374 203.803 28.1308 203.525 27.9728C203.356 27.9242 203.247 27.8715 203.135 27.8715C202.965 27.8715 202.744 27.9242 202.466 27.9728C200.959 28.3374 199.509 28.6493 198.003 28.8073C196.054 29.0139 194.881 29.743 194.382 31.566C193.991 33.2309 191.981 36.5081 190.644 37.7558C190.531 37.9097 190.423 38.015 190.366 38.1204C190.253 38.2743 190.088 38.3269 189.919 38.3269C189.806 38.3269 189.698 38.3269 189.641 38.2743C189.25 38.1204 189.307 37.7558 189.307 37.3912C189.307 34.0087 190.197 30.2129 191.59 27.0897C191.76 26.7251 191.873 26.4658 191.816 26.1013C191.76 25.9433 191.647 25.7893 191.482 25.7367C191.425 25.684 191.313 25.6313 191.148 25.6313C190.978 25.6313 190.865 25.684 190.813 25.7367C190.644 25.8947 190.475 26.0486 190.423 26.2592C188.86 29.6377 188.191 33.1782 187.8 36.9213C187.857 37.1846 187.857 37.4965 187.913 37.7558C187.913 38.0677 187.97 38.3796 188.022 38.6915C188.247 39.5746 188.69 40.0445 189.415 40.0445Z" fill="white"/>
<path d="M203.127 35.2561C203.852 35.2561 204.802 34.531 205.302 34.1138C206.695 32.9187 207.924 31.667 209.205 30.2613C209.374 30.1074 209.596 29.9008 209.765 29.6902C209.93 29.4836 210.208 29.3256 210.598 29.1716C210.208 30.5773 209.873 31.9263 209.873 33.3319C209.873 34.3204 210.321 34.8429 211.267 34.8429C211.493 34.8429 211.658 34.8429 211.771 34.7903C214.111 34.4257 218.07 30.9378 219.69 29.4309C219.746 29.3782 219.855 29.2729 219.911 29.2243C219.967 29.1716 219.967 29.119 220.024 29.0663C220.132 28.7017 220.08 28.4425 219.798 28.2845C219.69 28.1832 219.577 28.1306 219.412 28.1306C219.355 28.1306 219.299 28.1832 219.13 28.2359C218.965 28.3371 218.795 28.4425 218.687 28.5478C218.517 28.7017 218.348 28.8071 218.183 28.961C217.679 29.3256 217.237 29.6902 216.846 30.0547C216.399 30.4193 215.952 30.8366 215.452 31.2012C214.784 31.7723 214.059 32.1896 213.386 32.6028C212.886 32.8661 212.383 33.0727 211.884 33.2793C211.827 33.3319 211.771 33.3319 211.658 33.3319C211.436 33.3319 211.323 33.178 211.323 32.8661C211.323 30.6259 213.051 26.8302 214.111 24.8534C214.224 24.5941 214.336 24.3834 214.501 24.1242C214.614 23.9176 214.727 23.7069 214.836 23.4477C215.005 22.9778 214.949 22.6132 214.558 22.4066C214.393 22.3539 214.28 22.3013 214.224 22.3013C214.059 22.3013 213.833 22.4066 213.555 22.6659C213.386 22.8238 213.277 23.0304 213.164 23.1884C212.999 23.395 212.886 23.6057 212.717 23.7596C212.383 24.1768 212.048 24.5941 211.771 25.0073C211.436 25.4245 211.102 25.8418 210.768 26.2064C210.542 26.4656 210.377 26.6196 210.264 26.6196C210.208 26.6196 210.043 26.5183 209.765 26.3603C209.205 25.9431 208.649 25.7365 208.089 25.7365C207.477 25.7365 206.865 25.9431 206.248 26.413C205.862 26.6722 205.58 26.8829 205.415 27.0895C203.739 28.6491 201.902 31.7197 201.902 34.0084C201.959 34.8429 202.402 35.2561 203.127 35.2561ZM203.63 33.3846C203.63 33.3319 203.63 33.3319 203.574 33.3319L203.517 33.2793C203.965 31.0432 205.08 29.1716 206.808 27.766C207.086 27.5067 207.755 27.1421 208.145 27.1421C208.423 27.1421 208.649 27.2475 208.927 27.4014C209.205 27.5594 209.261 27.8186 209.148 28.1306C209.092 28.2845 208.983 28.3372 208.927 28.3898C207.42 30.1074 205.914 31.825 204.13 33.2307C204.021 33.3319 203.852 33.3846 203.63 33.3846Z" fill="white"/>
<path d="M220.853 42.4911C221.968 42.4911 223.753 40.7208 224.365 39.8377C225.537 38.3794 226.761 36.8724 227.99 35.2561C229.162 33.6965 230.387 32.1896 231.559 30.7839C231.837 30.3666 232.171 29.9008 232.392 29.4835C232.562 29.3256 232.618 29.119 232.618 28.8597C232.674 28.5964 232.618 28.3898 232.34 28.2845C232.171 28.2359 232.058 28.1832 231.949 28.1832C231.559 28.1832 231.055 29.0136 230.89 29.2729C228.437 32.4488 225.593 36.1433 222.971 39.2625C222.693 39.6271 221.634 40.8788 221.13 40.8788C220.853 40.8788 220.683 40.7208 220.627 40.4616C220.24 39.4205 220.349 38.3267 220.518 37.2856C220.796 34.0611 221.578 28.3898 223.527 25.6311C226.093 22.042 230.89 14.5518 231.893 10.3875C231.949 9.97428 231.893 9.55704 231.389 9.34639C231.168 9.29778 231.055 9.24512 230.999 9.24512C230.777 9.24512 230.499 9.34639 230.222 9.55704C226.371 13.1462 223.249 21.0009 221.578 25.7364C221.187 26.9315 220.853 27.9725 220.015 28.961C219.793 29.1716 219.624 29.4835 219.85 29.7428C220.349 30.314 220.127 30.9378 219.958 31.5131C219.459 33.7492 219.068 35.9326 219.012 38.586C219.012 38.744 219.012 39.0032 219.012 39.3151C219.012 39.6271 219.012 39.939 219.068 40.3036C219.233 41.1381 219.793 42.4911 220.853 42.4911ZM225.368 21.0536C225.203 20.7416 225.255 20.3771 225.424 19.9598C226.483 17.4118 227.764 15.0177 229.271 12.6763C229.496 12.417 229.661 12.2631 229.831 12.2631C229.883 12.2631 229.996 12.3117 230.165 12.3643C230.109 12.3117 230.109 12.2631 230.109 12.2104C230.109 12.2631 230.109 12.2631 230.165 12.3117V12.3643L228.659 15.1757C227.543 17.1525 226.483 19.1294 225.424 21.0536C225.424 21.0009 225.424 21.0009 225.424 21.0009C225.368 21.0009 225.368 21.0009 225.368 21.0536Z" fill="white"/>
<path d="M232.611 41.3974C232.781 41.3974 233.002 41.2921 233.28 41.1382C233.671 40.8789 233.949 40.5143 234.174 40.0444C234.617 39.3153 235.064 38.5861 235.455 37.8083C237.018 34.7904 239.137 30.6787 241.59 28.1307C241.755 27.9727 241.98 27.7661 242.258 27.6081C242.315 27.5595 242.371 27.5595 242.423 27.5595C242.593 27.5595 242.649 27.6081 242.649 27.7661C242.705 28.0253 242.705 28.236 242.705 28.4426C242.705 28.6492 242.705 28.8598 242.705 29.1191C242.649 30.2128 242.649 31.3025 242.87 32.3436C243.148 33.5913 243.873 34.2192 244.989 34.2192C246.439 34.2192 252.461 30.4194 252.908 28.9125C252.965 28.6492 252.852 28.4426 252.63 28.2846C252.574 28.236 252.517 28.236 252.461 28.1833C252.404 28.1307 252.296 28.1307 252.239 28.1307C252.127 28.1307 252.018 28.1833 251.962 28.236C251.736 28.3899 251.514 28.5965 251.345 28.8072C250.286 29.7956 247.051 32.0844 245.714 32.6555C245.493 32.7609 245.271 32.8135 245.046 32.8135C244.655 32.8135 244.377 32.5016 244.264 31.9264C244.208 31.7198 244.156 31.5132 244.156 31.2539C244.156 31.0433 244.156 30.8367 244.156 30.5774C244.099 30.1602 244.099 29.7429 244.156 29.3257C244.156 28.9125 244.156 28.4952 244.156 28.0253C244.156 27.8187 244.156 27.6081 244.208 27.3488C244.208 27.1422 244.156 26.9316 244.099 26.6723C243.986 25.9958 243.596 25.6312 242.927 25.6312C242.593 25.6312 242.315 25.7366 242.089 25.8946C239.193 27.7661 235.733 34.0612 234.226 37.0265C234.062 37.2858 233.949 37.5491 233.84 37.8083C233.727 38.0676 233.506 38.3268 233.115 38.5861C233.059 38.2256 233.002 38.1202 233.002 37.9096C233.002 34.2678 234.73 25.8946 236.905 22.666C239.805 18.5057 242.037 14.24 244.208 9.7111C244.321 9.45184 244.433 9.19258 244.546 8.93332C244.655 8.67001 244.768 8.41075 244.824 8.15149C244.881 7.99351 244.933 7.89223 244.933 7.73425C244.933 7.58031 244.933 7.47499 244.933 7.317C244.933 7.05774 244.768 6.90381 244.377 6.90381C244.321 6.90381 244.264 6.90381 244.208 6.95647C243.93 7.11041 243.652 7.26839 243.487 7.42233C239.692 12.0525 236.736 17.9345 234.787 23.3951C234.565 23.9663 234.339 24.4889 234.174 25.0074C233.949 25.53 233.671 26.0485 233.28 26.5184C233.224 26.6723 233.115 26.7777 233.059 26.9316C232.946 27.0896 232.946 27.2962 233.002 27.4542C233.167 27.8187 233.224 28.1833 233.167 28.4952C233.059 28.8072 232.946 29.1191 232.889 29.431C232.781 30.1075 232.668 30.784 232.499 31.4079C232.334 32.0844 232.164 32.7609 232.056 33.4374C231.665 35.4669 231.383 37.3384 231.552 39.3679C231.552 39.8378 231.609 40.3037 231.721 40.7209C231.886 41.1908 232.221 41.3974 232.611 41.3974ZM239.358 16.4235C239.636 16.1642 239.692 15.905 239.749 15.5404C239.805 15.7996 239.692 16.0589 239.415 16.3708V16.4235H239.358ZM239.862 15.4351C240.027 15.2811 240.14 15.2285 240.196 15.1758L239.862 15.4351ZM240.361 14.9165L240.53 14.4993C240.474 14.552 240.474 14.6532 240.474 14.7059C240.474 14.7586 240.418 14.8639 240.361 14.9165Z" fill="white"/>
<path d="M254.179 37.1318C254.683 37.1318 255.239 36.9738 255.742 36.7145C256.467 36.2446 257.023 35.6734 257.414 34.8957C257.917 33.9072 258.03 32.9188 257.804 31.9263C257.639 31.0432 257.583 31.0432 258.642 30.8893C259.815 30.784 260.874 30.5247 261.933 30.1601C262.936 29.7956 263.995 29.4836 265.055 29.1191C265.558 28.9611 265.667 28.6491 265.502 28.2846C265.333 28.0253 265.055 27.8714 264.777 27.8714L263.883 28.078C263.383 28.2359 262.88 28.4425 262.376 28.5965C261.877 28.7545 261.317 28.9611 260.817 29.1191C259.758 29.431 258.755 29.589 257.696 29.589H255.964C255.577 29.6376 255.239 30.0022 255.408 30.3667C255.577 30.7313 255.742 31.0432 255.964 31.4078C256.802 32.6028 256.524 33.6966 255.799 34.7903C255.295 35.6208 254.739 35.7261 253.845 35.7261C253.12 35.5722 252.729 34.9443 252.729 33.9559C252.729 33.3847 252.786 32.8662 252.955 32.4489C253.176 31.5658 253.567 30.6787 254.071 29.7956C254.683 28.9125 255.186 28.0253 256.467 27.8187C256.858 27.766 256.858 27.5068 256.802 27.1422C256.745 26.8829 256.58 26.6723 256.189 26.6196C255.912 26.6196 255.686 26.6723 255.464 26.7776C253.289 27.5594 251.448 31.4605 251.283 33.5913C251.227 34.0085 251.283 34.4784 251.392 34.9443C251.67 36.35 252.842 37.1318 254.179 37.1318Z" fill="white"/>
<path d="M62.4073 59.6643V56.1481H64.5607C65.1207 56.1481 65.5723 56.3141 65.9109 56.6342C66.2408 56.9663 66.4189 57.3714 66.4189 57.8819C66.4189 58.4044 66.2408 58.8217 65.8848 59.166C65.5288 59.4982 65.0947 59.6643 64.5607 59.6643H62.4073ZM67.374 57.9062C67.374 57.1446 67.0744 56.5207 66.5013 56.0225C65.9283 55.5404 65.2423 55.2974 64.4261 55.2974H61.4521V63.9542H62.4073V60.5312H64.4261C65.2423 60.5312 65.9413 60.2881 66.5013 59.802C67.0744 59.2956 67.374 58.6718 67.374 57.9062Z" fill="white"/>
<path d="M69.5235 63.1642C69.2891 63.0102 69.111 62.7591 69.0155 62.3864H68.0083C68.2124 63.5449 69.0025 64.1202 70.3961 64.1202C70.7218 64.1202 71.0213 64.0959 71.3079 64.0189C71.5944 63.9419 71.8419 63.8407 72.072 63.6989C72.5365 63.4072 72.771 62.9616 72.771 62.3621C72.771 61.7504 72.4714 61.3169 71.8419 61.0374C71.5814 60.924 71.2948 60.8349 70.9822 60.7701C70.6827 60.7093 70.3961 60.6323 70.1356 60.5554C69.8621 60.4784 69.6451 60.3771 69.4671 60.2637C69.2891 60.1462 69.1935 59.968 69.1935 59.7128C69.1935 59.4616 69.3021 59.2672 69.5235 59.1537C69.7406 59.0282 70.0011 58.9633 70.2876 58.9633C70.5872 58.9633 70.8477 59.0282 71.0517 59.1294C71.2558 59.2307 71.4207 59.4333 71.5163 59.7411H72.5365C72.4149 59.178 72.1545 58.7851 71.7724 58.5704C71.3773 58.3395 70.8998 58.2261 70.3136 58.2261C69.7406 58.2261 69.237 58.376 68.8115 58.6595C68.4034 58.9512 68.1863 59.3725 68.1863 59.9315C68.1863 60.1989 68.2688 60.4419 68.4164 60.6445C68.5814 60.8592 68.8115 61.0253 69.111 61.1549C69.3846 61.2683 69.6711 61.3574 69.9707 61.4344C70.2746 61.4952 70.5611 61.5721 70.8303 61.6491C71.4468 61.8395 71.7594 62.119 71.7594 62.4755C71.7594 63.0872 71.3252 63.3829 70.4482 63.3829C70.0835 63.3829 69.7666 63.3181 69.5235 63.1642Z" fill="white"/>
<path d="M75.1123 56.4155C74.9908 56.3142 74.8388 56.2534 74.6738 56.2534C74.5132 56.2534 74.3612 56.3142 74.2527 56.4155C74.1311 56.5329 74.0747 56.6707 74.0747 56.8246C74.0747 56.9785 74.1311 57.1163 74.2527 57.2175C74.3612 57.335 74.5132 57.3836 74.6738 57.3836C74.8388 57.3836 74.9908 57.335 75.1123 57.2175C75.2209 57.1163 75.2903 56.9785 75.2903 56.8246C75.2903 56.6707 75.2209 56.5329 75.1123 56.4155ZM75.1644 63.9542V58.3518H74.2093V63.9542H75.1644Z" fill="white"/>
<path d="M82.8709 60.365C82.6798 59.7412 82.3152 59.2308 81.7811 58.8378C81.2211 58.4408 80.6089 58.2383 79.9273 58.2383C79.0677 58.2383 78.3296 58.5299 77.7435 59.1052C77.1401 59.6764 76.8535 60.365 76.8535 61.1549C76.8535 61.957 77.1401 62.6295 77.7435 63.2169C78.017 63.4842 78.3296 63.6989 78.7117 63.8529C79.0807 64.0068 79.4628 64.0797 79.8448 64.0797C80.2269 64.0797 80.5655 64.0433 80.8651 63.942C81.8202 63.622 82.4758 63.0265 82.8188 62.1191H81.7421C81.551 62.4391 81.3036 62.6943 80.978 62.8725C80.648 63.0629 80.3094 63.1521 79.9273 63.1521C79.3369 63.1521 78.8463 62.9617 78.4382 62.5647C78.0301 62.1717 77.839 61.7018 77.839 61.1549C77.839 60.6324 78.0301 60.1584 78.4382 59.7655C78.6292 59.5872 78.8463 59.4333 79.1068 59.332C79.3542 59.2308 79.6668 59.1659 80.0228 59.1659C80.3745 59.1659 80.7175 59.2834 81.0735 59.4981C81.4121 59.729 81.6726 60.0085 81.8376 60.365H82.8709Z" fill="white"/>
<path d="M89.2783 61.1266C89.2783 61.6897 89.0612 62.1596 88.6357 62.5525C88.2016 62.9617 87.698 63.1521 87.0945 63.1521C86.4954 63.1521 85.9787 62.9617 85.5532 62.5525C85.1191 62.1596 84.9107 61.6897 84.9107 61.1266C84.9107 60.5676 85.1191 60.0977 85.5532 59.6885C85.9787 59.2956 86.4954 59.089 87.0945 59.089C87.698 59.089 88.2016 59.2956 88.6357 59.6885C89.0612 60.0977 89.2783 60.5676 89.2783 61.1266ZM90.2334 61.1266C90.2334 60.3245 89.9208 59.6399 89.3043 59.0647C88.6922 58.4935 87.9541 58.1978 87.0945 58.1978C86.2218 58.1978 85.4838 58.4935 84.8716 59.0647C84.2595 59.6399 83.9556 60.3245 83.9556 61.1266C83.9556 61.9408 84.2595 62.6295 84.8716 63.1885C85.4838 63.7637 86.2349 64.0433 87.0945 64.0433C87.9411 64.0433 88.6922 63.7637 89.3043 63.1885C89.9208 62.6295 90.2334 61.9408 90.2334 61.1266ZM89.0482 55.2852H87.8716L86.7819 57.104H87.546L89.0482 55.2852Z" fill="white"/>
<path d="M92.8209 63.9543V54.4062H91.8657V63.9543H92.8209Z" fill="white"/>
<path d="M99.7753 61.1266C99.7753 61.6897 99.5583 62.1596 99.1328 62.5525C98.6986 62.9616 98.195 63.152 97.5916 63.152C96.9924 63.152 96.4758 62.9616 96.0503 62.5525C95.6162 62.1596 95.4078 61.6897 95.4078 61.1266C95.4078 60.5675 95.6162 60.0976 96.0503 59.6885C96.4758 59.2956 96.9924 59.089 97.5916 59.089C98.195 59.089 98.6986 59.2956 99.1328 59.6885C99.5583 60.0976 99.7753 60.5675 99.7753 61.1266ZM100.73 61.1266C100.73 60.3245 100.418 59.6399 99.8014 59.0647C99.1892 58.4935 98.4512 58.1978 97.5916 58.1978C96.7189 58.1978 95.9809 58.4935 95.3687 59.0647C94.7565 59.6399 94.4526 60.3245 94.4526 61.1266C94.4526 61.9408 94.7565 62.6295 95.3687 63.1885C95.9809 63.7637 96.7319 64.0432 97.5916 64.0432C98.4382 64.0432 99.1892 63.7637 99.8014 63.1885C100.418 62.6295 100.73 61.9408 100.73 61.1266Z" fill="white"/>
<path d="M107.221 61.1549C107.221 61.7018 107.012 62.1838 106.604 62.5808C106.196 62.9859 105.692 63.1885 105.102 63.1885C104.516 63.1885 104.012 62.9859 103.604 62.5808C103.192 62.1838 102.988 61.7139 102.988 61.1549C102.988 60.604 103.192 60.1341 103.604 59.729C104.012 59.3198 104.516 59.1173 105.102 59.1173C105.692 59.1173 106.196 59.3198 106.604 59.729C107.012 60.1341 107.221 60.6202 107.221 61.1549ZM102.962 64.7197H101.98C102.089 65.3152 102.376 65.8378 102.866 66.2834C103.465 66.8586 104.203 67.1381 105.063 67.1381C105.91 67.1381 106.648 66.8586 107.26 66.2834C107.859 65.7243 108.176 65.0357 108.176 64.2336V58.3517H107.221V59.2955C107.164 59.2429 107.108 59.178 107.056 59.1173C106.457 58.5299 105.758 58.2261 104.967 58.2261C104.121 58.2261 103.426 58.5299 102.853 59.1173C102.306 59.7006 102.033 60.3771 102.033 61.1549C102.033 61.9408 102.306 62.6173 102.853 63.1885C103.426 63.788 104.121 64.0797 104.967 64.0797C105.788 64.0797 106.483 63.788 107.056 63.1885C107.108 63.1398 107.164 63.075 107.221 63.0264V64.2336C107.221 64.7926 106.999 65.2666 106.578 65.6595C106.153 66.0565 105.649 66.2469 105.063 66.2469C104.464 66.2469 103.956 66.0565 103.535 65.6595C103.235 65.38 103.044 65.0762 102.962 64.7197Z" fill="white"/>
<path d="M114.99 61.1549C114.99 61.7018 114.786 62.1838 114.374 62.5808C113.966 62.9859 113.462 63.1885 112.876 63.1885C112.273 63.1885 111.769 62.9859 111.361 62.5808C110.948 62.1838 110.757 61.7018 110.757 61.1549C110.757 60.6202 110.948 60.1341 111.361 59.729C111.769 59.3198 112.273 59.1173 112.876 59.1173C113.462 59.1173 113.966 59.3198 114.374 59.729C114.786 60.1341 114.99 60.6202 114.99 61.1549ZM115.946 63.9541V58.3517H114.99V59.3198C114.934 59.2429 114.864 59.178 114.812 59.1173C114.239 58.5299 113.545 58.2261 112.724 58.2261C111.891 58.2261 111.196 58.5299 110.623 59.1173C110.076 59.7006 109.802 60.3771 109.802 61.1549C109.802 61.9408 110.076 62.6173 110.623 63.1885C111.196 63.788 111.891 64.0797 112.724 64.0797C113.545 64.0797 114.239 63.788 114.812 63.1885C114.864 63.1398 114.934 63.075 114.99 62.9981V63.9541H115.946Z" fill="white"/>
<path d="M125.73 61.4829V60.7578H121.158V61.4829H125.73Z" fill="white"/>
<path d="M139.45 61.305H138.399C138.069 61.8681 137.622 62.3259 137.049 62.654C136.476 62.9983 135.833 63.1644 135.152 63.1644C134.127 63.1644 133.254 62.8201 132.529 62.1071C131.822 61.4347 131.479 60.6042 131.479 59.6401C131.479 58.6719 131.822 57.8415 132.529 57.1569C132.859 56.8369 133.254 56.5817 133.706 56.3913C134.14 56.2009 134.578 56.0996 135.013 56.0996C135.438 56.0996 135.807 56.1482 136.133 56.2373C137.131 56.5209 137.878 57.0799 138.386 57.9306H139.437C139.081 57.1164 138.521 56.4561 137.743 55.9457C136.953 55.4352 136.094 55.1841 135.152 55.1841C133.853 55.1841 132.764 55.6297 131.861 56.5047C131.439 56.9138 131.114 57.3959 130.879 57.9306C130.636 58.4653 130.523 59.0406 130.523 59.6401C130.523 60.8594 130.962 61.8924 131.861 62.7593C132.764 63.6505 133.853 64.0799 135.152 64.0799C136.094 64.0799 136.953 63.8288 137.756 63.3183C138.534 62.8079 139.094 62.1476 139.45 61.305Z" fill="white"/>
<path d="M141.829 59.6764V56.1481H143.983C144.543 56.1481 144.994 56.3141 145.333 56.6463C145.663 56.9785 145.841 57.3836 145.841 57.894C145.841 58.4044 145.663 58.8217 145.307 59.166C144.951 59.5103 144.517 59.6764 143.983 59.6764H141.829ZM146.796 57.9062C146.796 57.1689 146.496 56.5329 145.923 56.0346C145.363 55.5526 144.664 55.2974 143.848 55.2974H140.874V63.9542H141.829V60.5312H142.932L145.663 63.9542H146.943L144.078 60.5312C144.803 60.4907 145.415 60.2476 145.923 59.802C146.496 59.3078 146.796 58.6718 146.796 57.9062Z" fill="white"/>
<path d="M149.245 59.6643V56.1481H151.398C151.958 56.1481 152.41 56.3141 152.748 56.6342C153.078 56.9663 153.256 57.3714 153.256 57.8819C153.256 58.4044 153.078 58.8217 152.722 59.166C152.366 59.4982 151.932 59.6643 151.398 59.6643H149.245ZM154.211 57.9062C154.211 57.1446 153.912 56.5207 153.339 56.0225C152.766 55.5404 152.08 55.2974 151.263 55.2974H148.29V63.9542H149.245V60.5312H151.263C152.08 60.5312 152.779 60.2881 153.339 59.802C153.912 59.2956 154.211 58.6718 154.211 57.9062Z" fill="white"/>
<path d="M162.726 56.3022C163.16 56.5574 163.477 56.9503 163.694 57.485C163.955 58.1737 164.089 58.8867 164.089 59.6523C164.089 59.8305 164.076 60.0452 164.05 60.2883C163.937 61.2281 163.681 61.9694 163.256 62.492C162.904 62.9497 162.479 63.1644 161.975 63.1644C161.402 63.1644 160.937 62.9497 160.581 62.5041C160.421 62.2975 160.295 62.0828 160.186 61.8276C160.078 61.5724 160.008 61.3172 159.956 61.0499C159.9 60.7987 159.861 60.5435 159.83 60.2883C159.804 60.0452 159.804 59.7657 159.804 59.4457C159.804 59.1297 159.848 58.7206 159.956 58.2507C160.008 57.9955 160.078 57.7281 160.186 57.4729C160.282 57.2177 160.403 56.9908 160.568 56.7883C160.733 56.5817 160.924 56.4318 161.141 56.3022C161.359 56.1766 161.632 56.1118 161.932 56.1118C162.236 56.1118 162.505 56.1766 162.726 56.3022ZM161.988 64.0678C163.078 64.0678 163.898 63.5736 164.458 62.5649C164.893 61.7628 165.127 60.7825 165.127 59.6118C165.127 58.4532 164.893 57.4729 164.458 56.6708C163.898 55.6662 163.078 55.1558 161.988 55.1558C160.881 55.1558 160.065 55.6662 159.505 56.6708C159.066 57.4729 158.849 58.4532 158.849 59.6118C158.849 60.7825 159.066 61.7628 159.505 62.5649C160.065 63.5736 160.881 64.0678 161.988 64.0678Z" fill="white"/>
<path d="M170.66 63.8651C171.042 63.7111 171.368 63.5086 171.654 63.2534C172.271 62.6944 172.583 62.0178 172.583 61.2036C172.583 60.4015 172.271 59.7129 171.641 59.1538C171.055 58.6313 170.317 58.3396 169.431 58.2748L169.023 58.5057L171.928 55.2974H166.935V56.1886H169.992L167.178 59.243L167.903 59.7898C168.342 59.3847 168.858 59.1781 169.457 59.1781C170.061 59.1781 170.565 59.3847 170.986 59.7777C171.411 60.1747 171.628 60.6446 171.628 61.1915C171.628 61.7383 171.411 62.2082 170.973 62.5931C170.782 62.7713 170.552 62.9212 170.291 63.0265C170.018 63.1278 169.705 63.1764 169.336 63.1764C168.954 63.1764 168.585 63.063 168.216 62.8321C167.834 62.6052 167.578 62.2852 167.426 61.8801L166.497 62.1718C166.701 62.743 167.083 63.2048 167.643 63.5613C167.903 63.7233 168.19 63.8529 168.502 63.942C168.802 64.0433 169.145 64.0798 169.527 64.0798C169.909 64.0798 170.278 64.019 170.66 63.8651Z" fill="white"/>
<path d="M179.793 54.4062H178.773L173.477 66.5145H174.501L179.793 54.4062Z" fill="white"/>
<path d="M181.084 63.9544H187.618V63.0632H183.39L186.624 60.0695C187.223 59.5105 187.523 58.8381 187.523 58.0481C187.523 57.246 187.21 56.5695 186.598 56.0105C185.969 55.4515 185.231 55.1558 184.388 55.1558C183.485 55.1558 182.734 55.4636 182.109 56.047C181.493 56.6343 181.206 57.3473 181.249 58.1737H182.218C182.161 57.639 182.352 57.1569 182.791 56.7113C183.212 56.29 183.733 56.0753 184.345 56.0753C184.931 56.0753 185.439 56.2657 185.86 56.6465C186.281 57.0394 186.503 57.5012 186.503 58.036C186.503 58.595 186.299 59.0528 185.886 59.4335L181.084 63.9544Z" fill="white"/>
<path d="M190.766 63.9544L194.843 55.334H189.017V56.2252H193.358L189.698 63.9544H190.766Z" fill="white"/>
<path d="M196.189 63.9544H202.723V63.0632H198.494L201.729 60.0695C202.328 59.5105 202.627 58.8381 202.627 58.0481C202.627 57.246 202.315 56.5695 201.703 56.0105C201.073 55.4515 200.335 55.1558 199.493 55.1558C198.59 55.1558 197.839 55.4636 197.214 56.047C196.597 56.6343 196.311 57.3473 196.354 58.1737H197.322C197.266 57.639 197.457 57.1569 197.895 56.7113C198.316 56.29 198.837 56.0753 199.449 56.0753C200.036 56.0753 200.544 56.2657 200.965 56.6465C201.386 57.0394 201.607 57.5012 201.607 58.036C201.607 58.595 201.403 59.0528 200.991 59.4335L196.189 63.9544Z" fill="white"/>
<path d="M205.871 63.9544L209.947 55.334H204.121V56.2252H208.463L204.803 63.9544H205.871Z" fill="white"/>
<path d="M212.591 63.9544L216.668 55.334H210.842V56.2252H215.183L211.523 63.9544H212.591Z" fill="white"/>
</svg>
